<svg width="20" height="21" viewBox="0 0 20 21" fill="none" xmlns="http://www.w3.org/2000/svg">
<g clip-path="url(#clip0_830_5038)">
<path d="M5.85355 4.03324C6.04882 3.83798 6.04882 3.5214 5.85355 3.32613C5.65829 3.13087 5.34171 3.13087 5.14645 3.32613L3.5 4.97258L2.85355 4.32613C2.65829 4.13087 2.34171 4.13087 2.14645 4.32613C1.95118 4.5214 1.95118 4.83798 2.14645 5.03324L3.14645 6.03324C3.34171 6.2285 3.65829 6.2285 3.85355 6.03324L5.85355 4.03324ZM8.5 4.67969C8.22386 4.67969 8 4.90355 8 5.17969C8 5.45583 8.22386 5.67969 8.5 5.67969H17.5C17.7761 5.67969 18 5.45583 18 5.17969C18 4.90355 17.7761 4.67969 17.5 4.67969H8.5ZM8.5 9.67969C8.22386 9.67969 8 9.90354 8 10.1797C8 10.4558 8.22386 10.6797 8.5 10.6797H17.5C17.7761 10.6797 18 10.4558 18 10.1797C18 9.90354 17.7761 9.67969 17.5 9.67969H8.5ZM10.0224 15.6797C10.0534 15.3363 10.1159 15.002 10.207 14.6797H8.5C8.22386 14.6797 8 14.9035 8 15.1797C8 15.4558 8.22386 15.6797 8.5 15.6797H10.0224ZM5.85355 9.53324C6.04882 9.33798 6.04882 9.0214 5.85355 8.82613C5.65829 8.63087 5.34171 8.63087 5.14645 8.82613L3.5 10.4726L2.85355 9.82613C2.65829 9.63087 2.34171 9.63087 2.14645 9.82613C1.95118 10.0214 1.95118 10.338 2.14645 10.5332L3.14645 11.5332C3.34171 11.7285 3.65829 11.7285 3.85355 11.5332L5.85355 9.53324ZM5.85355 13.8261C6.04882 14.0214 6.04882 14.338 5.85355 14.5332L3.85355 16.5332C3.65829 16.7285 3.34171 16.7285 3.14645 16.5332L2.14645 15.5332C1.95118 15.338 1.95118 15.0214 2.14645 14.8261C2.34171 14.6309 2.65829 14.6309 2.85355 14.8261L3.5 15.4726L5.14645 13.8261C5.34171 13.6309 5.65829 13.6309 5.85355 13.8261ZM20 16.1797C20 18.665 17.9853 20.6797 15.5 20.6797C13.0147 20.6797 11 18.665 11 16.1797C11 13.6944 13.0147 11.6797 15.5 11.6797C17.9853 11.6797 20 13.6944 20 16.1797ZM16 14.1797C16 13.9035 15.7761 13.6797 15.5 13.6797C15.2239 13.6797 15 13.9035 15 14.1797V15.6797H13.5C13.2239 15.6797 13 15.9035 13 16.1797C13 16.4558 13.2239 16.6797 13.5 16.6797H15V18.1797C15 18.4558 15.2239 18.6797 15.5 18.6797C15.7761 18.6797 16 18.4558 16 18.1797V16.6797H17.5C17.7761 16.6797 18 16.4558 18 16.1797C18 15.9035 17.7761 15.6797 17.5 15.6797H16V14.1797Z" fill="#515365"/>
</g>
<defs>
<clipPath id="clip0_830_5038">
<rect width="20" height="20" fill="white" transform="translate(0 0.679688)"/>
</clipPath>
</defs>
</svg>
