<svg width="20" height="21" viewBox="0 0 20 21" fill="none" xmlns="http://www.w3.org/2000/svg">
<path d="M1.5 8.86208V5.09814C1.5 4.71937 1.714 4.37311 2.05279 4.20372L5.05279 2.70372C5.33431 2.56295 5.66569 2.56295 5.94721 2.70372L8.94721 4.20372C9.286 4.37311 9.5 4.71937 9.5 5.09814V8.86208C9.5 9.24085 9.286 9.58711 8.94721 9.7565L5.94721 11.2565C5.66569 11.3973 5.33431 11.3973 5.05279 11.2565L2.05279 9.7565C1.714 9.58711 1.5 9.24085 1.5 8.86208ZM2.53938 5.28562C2.43196 5.54001 2.55111 5.83332 2.80551 5.94073L5.00004 6.86734L5 9.4801C5 9.75625 5.22385 9.98011 5.49999 9.98011C5.77614 9.98011 6 9.75626 6 9.48012L6.00004 6.86734L8.1945 5.94073C8.44889 5.83331 8.56804 5.54001 8.46062 5.28561C8.3532 5.03122 8.0599 4.91207 7.8055 5.01949L5.50004 5.99297L3.19449 5.01949C2.9401 4.91207 2.64679 5.03122 2.53938 5.28562ZM2.04248 15.2302V10.8693L3.04248 11.3693V15.2302C3.04248 15.6445 3.37827 15.9802 3.79248 15.9802H4.0505C4.28213 14.8391 5.29101 13.9802 6.50049 13.9802C7.70997 13.9802 8.71884 14.8391 8.95048 15.9802H10.0505C10.2821 14.8391 11.291 13.9802 12.5005 13.9802C12.6717 13.9802 12.8389 13.9975 13.0005 14.0302V5.73024C13.0005 5.31603 12.6647 4.98024 12.2505 4.98024H10.497C10.4756 4.61723 10.3561 4.27298 10.1588 3.98024H12.2505C13.217 3.98024 14.0005 4.76374 14.0005 5.73024V6.9803L14.8824 6.98018C15.4506 6.9801 15.9701 7.30111 16.2242 7.80936L17.8422 11.0453C17.9464 11.2536 18.0006 11.4833 18.0006 11.7162V15.4801C18.0006 16.3085 17.329 16.9801 16.5006 16.9801H14.9505C14.7189 18.1213 13.71 18.9802 12.5005 18.9802C11.291 18.9802 10.2821 18.1214 10.0505 16.9802H8.95048C8.71884 18.1214 7.70997 18.9802 6.50049 18.9802C5.29101 18.9802 4.28213 18.1214 4.0505 16.9802H3.79248C2.82598 16.9802 2.04248 16.1967 2.04248 15.2302ZM14.9504 15.9801H16.5006C16.7767 15.9801 17.0006 15.7562 17.0006 15.4801V11.9802H14.0005V14.4801C14.4805 14.8406 14.8266 15.37 14.9504 15.9801ZM16.6916 10.9802L15.3298 8.25657C15.2451 8.08716 15.0719 7.98015 14.8825 7.98018L14.0005 7.9803V10.9802H16.6916ZM5.00049 16.4802C5.00049 17.3087 5.67206 17.9802 6.50049 17.9802C7.32892 17.9802 8.00049 17.3087 8.00049 16.4802C8.00049 15.6518 7.32892 14.9802 6.50049 14.9802C5.67206 14.9802 5.00049 15.6518 5.00049 16.4802ZM12.5005 17.9802C13.3289 17.9802 14.0005 17.3087 14.0005 16.4802C14.0005 15.6518 13.3289 14.9802 12.5005 14.9802C11.6721 14.9802 11.0005 15.6518 11.0005 16.4802C11.0005 17.3087 11.6721 17.9802 12.5005 17.9802Z" fill="#515365"/>
</svg>
