<svg width="20" height="21" viewBox="0 0 20 21" fill="none" xmlns="http://www.w3.org/2000/svg">
<path d="M11.2999 2.76449C10.4654 2.43072 9.53457 2.43072 8.70013 2.76449L2.94291 5.06738C2.37343 5.29517 2 5.84674 2 6.46009V14.106C2 14.7194 2.37343 15.2709 2.94291 15.4987L8.70013 17.8016C9.53457 18.1354 10.4654 18.1354 11.2999 17.8016L17.0571 15.4987C17.6266 15.2709 18 14.7194 18 14.106V6.46009C18 5.84674 17.6266 5.29517 17.0571 5.06738L11.2999 2.76449ZM9.07152 3.69297C9.66755 3.45456 10.3324 3.45456 10.9285 3.69297L16.1538 5.7831L13.8751 6.69457L7.72133 4.23304L9.07152 3.69297ZM6.37504 4.77156L12.5289 7.23309L10.0001 8.24457L3.84633 5.78304L6.37504 4.77156ZM10.5001 9.1216L17 6.52166V14.106C17 14.3105 16.8755 14.4943 16.6857 14.5703L10.9285 16.8732C10.7889 16.929 10.6455 16.9717 10.5001 17.0014V9.1216ZM9.50015 9.1216V17.0015C9.35467 16.9718 9.21121 16.929 9.07152 16.8732L3.3143 14.5703C3.12448 14.4943 3 14.3105 3 14.106V6.52154L9.50015 9.1216Z" fill="#515365"/>
</svg>
