<svg width="20" height="21" viewBox="0 0 20 21" fill="none" xmlns="http://www.w3.org/2000/svg">
<path d="M7 9.5C7 8.39543 7.89543 7.5 9 7.5C10.1046 7.5 11 8.39543 11 9.5C11 10.6046 10.1046 11.5 9 11.5C7.89543 11.5 7 10.6046 7 9.5ZM9 8.5C8.44772 8.5 8 8.94772 8 9.5C8 10.0523 8.44772 10.5 9 10.5C9.55228 10.5 10 10.0523 10 9.5C10 8.94772 9.55228 8.5 9 8.5ZM3.5 4.5C2.67157 4.5 2 5.17157 2 6V13C2 13.8284 2.67157 14.5 3.5 14.5H9.02242C9.05337 14.1566 9.11588 13.8223 9.20703 13.5H6V12.5C6 11.3954 5.10457 10.5 4 10.5H3V8.5L4 8.5C5.10457 8.5 6 7.60457 6 6.5V5.5H12V6.5C12 7.60457 12.8954 8.5 14 8.5L15 8.5V9.52242C15.3434 9.55337 15.6777 9.61588 16 9.70703V6C16 5.17157 15.3284 4.5 14.5 4.5H3.5ZM3 6C3 5.72386 3.22386 5.5 3.5 5.5H5V6.5C5 7.05228 4.55228 7.5 4 7.5L3 7.5V6ZM13 5.5H14.5C14.7761 5.5 15 5.72386 15 6V7.5L14 7.5C13.4477 7.5 13 7.05228 13 6.5V5.5ZM5 13.5H3.5C3.22386 13.5 3 13.2761 3 13V11.5H4C4.55228 11.5 5 11.9477 5 12.5V13.5ZM4.08545 15.5H9.02242C9.05336 15.8434 9.11587 16.1777 9.20703 16.5H5.5001C4.84699 16.5 4.29137 16.0826 4.08545 15.5ZM18.0001 7.99997V10.7572C17.693 10.5036 17.3579 10.2827 17.0001 10.0998V6.58533C17.5827 6.79125 18.0001 7.34686 18.0001 7.99997ZM12.0647 11.9429C12.368 13.0241 11.722 14.143 10.6341 14.4209L10.173 14.5387C10.1581 14.6906 10.1504 14.8448 10.1504 15.0008C10.1504 15.1885 10.1615 15.3735 10.1831 15.5551L10.5326 15.6377C11.652 15.9024 12.318 17.0545 11.9887 18.1567L11.8623 18.5795C12.1195 18.7827 12.3993 18.9569 12.697 19.0974L13.022 18.7533C13.8118 17.917 15.1426 17.9177 15.9315 18.7548L16.2689 19.1128C16.5613 18.9778 16.8367 18.8105 17.0907 18.6151L16.9346 18.0585C16.6313 16.9773 17.2773 15.8584 18.3652 15.5805L18.8258 15.4629C18.8408 15.311 18.8484 15.1568 18.8484 15.0008C18.8484 14.813 18.8373 14.628 18.8157 14.4462L18.4667 14.3637C17.3473 14.099 16.6813 12.9469 17.0106 11.8447L17.1368 11.4225C16.8796 11.2192 16.5998 11.0449 16.302 10.9044L15.9773 11.2482C15.1875 12.0845 13.8568 12.0838 13.0678 11.2466L12.7305 10.8887C12.438 11.0236 12.1626 11.1909 11.9086 11.3862L12.0647 11.9429ZM14.4994 16.0008C13.9471 16.0008 13.4994 15.5531 13.4994 15.0008C13.4994 14.4485 13.9471 14.0008 14.4994 14.0008C15.0517 14.0008 15.4994 14.4485 15.4994 15.0008C15.4994 15.5531 15.0517 16.0008 14.4994 16.0008Z" fill="#515365"/>
</svg>
