<svg width="177" height="48" viewBox="0 0 177 48" fill="none" xmlns="http://www.w3.org/2000/svg">
<g clip-path="url(#clip0_608_2159)">
<path fill-rule="evenodd" clip-rule="evenodd" d="M25.9652 8.41141L24.9883 7.17986C28.3975 4.6832 33.3641 5.09372 36.2613 8.41141H25.9652ZM29.2991 12.614L27.2988 10.0925H37.4173L38.8734 12.614H29.2991ZM32.633 16.8168L30.6326 14.2951H39.8442L41.3004 16.8168H32.633ZM35.4431 21.0195L35.3567 20.2503L33.9666 18.4979H42.2712L43.7274 21.0195H35.4431ZM35.9153 25.2222L35.632 22.7006H44.6982L46.1543 25.2222H35.9153ZM36.3876 29.4248L36.1042 26.9032H47.1251L48.5813 29.4248H36.3876ZM36.8598 33.6275L36.5764 31.1059H49.5521L51.0083 33.6275H36.8598ZM37.332 37.8303L37.0487 35.3086H51.979L52.0393 35.413C52.4932 36.1989 52.8038 37.0124 52.9847 37.8303H37.332ZM37.8042 42.0329L37.5209 39.5114H53.1779C53.1875 40.3741 53.0613 41.2239 52.8153 42.0329H37.8042ZM38.4771 48.0218L37.9931 43.714H52.0994C51.077 45.544 49.3846 46.998 47.2685 47.6497L44.5888 48.0218H38.4771Z" fill="#D97706"/>
<path fill-rule="evenodd" clip-rule="evenodd" d="M16.3613 9.76836C19.5959 4.16706 27.6809 4.16705 30.9155 9.76836L45.7181 35.4014C48.9533 41.0037 44.9102 48.0072 38.441 48.0072H27.6662C29.1053 46.5794 30.9854 46.0758 30.9854 46.0758H30.964C32.1211 45.7544 32.9568 44.7044 32.9568 43.4615C32.9568 41.8972 31.4568 40.6758 30.2354 40.7401C29.3783 40.783 28.6497 41.4687 28.4568 41.6615C28.2211 41.8972 28.114 42.0472 27.664 42.7115L27.588 42.8227L27.5879 42.8228L27.5877 42.823L27.5876 42.8232C27.3131 43.2249 26.9331 43.7808 26.464 44.4258C26.164 44.7044 25.1354 45.5615 23.614 45.6258C22.0926 45.583 21.064 44.7044 20.764 44.4258C20.2497 43.6972 19.8426 43.1187 19.564 42.7115L19.4528 42.5471C19.0941 42.0167 18.9861 41.8569 18.7711 41.6615L18.7327 41.6267C18.481 41.3974 17.804 40.7807 16.9926 40.7401C15.7711 40.6758 14.2711 41.8972 14.2711 43.4615C14.2711 44.7044 15.1068 45.7544 16.264 46.0758H16.2426C16.2426 46.0758 18.1227 46.5794 19.5618 48.0072H8.83582C2.36655 48.0072 -1.67647 41.0037 1.55871 35.4014L16.3613 9.76836ZM30.3426 32.5758C31.5641 32.5116 33.0855 33.733 33.0855 35.3187C33.0855 36.583 32.2284 37.633 30.9855 37.9758H31.0069C31.0069 37.9758 27.3855 38.9616 26.3141 42.0258C26.3141 42.433 26.2284 42.8401 26.0569 43.183C25.6498 44.0401 24.8355 44.6401 23.8498 44.7473H23.8284C23.7426 44.7687 23.6569 44.7687 23.5712 44.7687C23.5284 44.7687 23.4856 44.7633 23.4427 44.758L23.4426 44.758L23.4426 44.758C23.3997 44.7526 23.3569 44.7473 23.3141 44.7473H23.2926C22.3069 44.6615 21.4926 44.0401 21.0855 43.183C20.9141 42.8401 20.8284 42.433 20.8284 42.0258C19.7784 38.9616 16.1355 37.9758 16.1355 37.9758H16.1569C14.9998 37.6544 14.1426 36.583 14.1426 35.3187C14.1426 33.7116 15.6641 32.4901 16.8855 32.5758C17.7168 32.6164 18.4138 33.2517 18.6679 33.4833L18.7069 33.5187C18.9259 33.7194 19.0205 33.8579 19.3348 34.3179C19.3896 34.3981 19.4512 34.4882 19.5212 34.5901L19.6467 34.7737C19.9167 35.169 20.2794 35.7 20.7212 36.3258C21.0426 36.6044 22.0712 37.483 23.6141 37.5258C25.1569 37.483 26.2069 36.6044 26.5069 36.3258C26.9487 35.7 27.3115 35.169 27.5815 34.7736L27.7069 34.5901C28.1784 33.9044 28.2855 33.7544 28.5212 33.5187C28.7355 33.3044 29.4641 32.6187 30.3426 32.5758ZM33.0855 27.3901C33.0855 25.8044 31.5641 24.583 30.3426 24.6473C29.4641 24.6901 28.7355 25.3758 28.5212 25.5901C28.2855 25.8258 28.1784 25.9758 27.7069 26.6616L27.5815 26.8451L27.5813 26.8453C27.3113 27.2407 26.9486 27.7715 26.5069 28.3973C26.2069 28.6758 25.1569 29.5544 23.6141 29.5973C22.0712 29.5544 21.0426 28.6758 20.7212 28.3973C20.2795 27.7716 19.9169 27.2407 19.6468 26.8453L19.6467 26.8452L19.5212 26.6616C19.4512 26.5597 19.3896 26.4696 19.3348 26.3893L19.3348 26.3893C19.0205 25.9294 18.9259 25.7908 18.7069 25.5901L18.6679 25.5547C18.4138 25.3231 17.7168 24.6878 16.8855 24.6473C15.6641 24.5616 14.1426 25.783 14.1426 27.3901C14.1426 28.6544 14.9998 29.7258 16.1569 30.0473H16.1355C16.1355 30.0473 19.7784 31.033 20.8284 34.0973C20.8284 34.5044 20.9141 34.9116 21.0855 35.2544C21.4926 36.1116 22.3069 36.733 23.2926 36.8187H23.3141C23.3569 36.8187 23.3998 36.8241 23.4426 36.8294C23.4855 36.8348 23.5284 36.8401 23.5712 36.8401H23.5712C23.6569 36.8401 23.7426 36.8401 23.8284 36.8187H23.8498C24.8355 36.7116 25.6498 36.1116 26.0569 35.2544C26.2284 34.9116 26.3141 34.5044 26.3141 34.0973C27.3855 31.033 31.0069 30.0473 31.0069 30.0473H30.9855C32.2284 29.7044 33.0855 28.6544 33.0855 27.3901ZM30.3426 16.7187C31.5641 16.6544 33.0855 17.8758 33.0855 19.4616C33.0855 20.7258 32.2284 21.7758 30.9855 22.1187H31.0069C31.0069 22.1187 27.3855 23.1044 26.3141 26.1687C26.3141 26.5758 26.2284 26.983 26.0569 27.3258C25.6498 28.183 24.8355 28.783 23.8498 28.8901H23.8284C23.7426 28.9116 23.6569 28.9116 23.5712 28.9116C23.5284 28.9116 23.4855 28.9062 23.4426 28.9008C23.3998 28.8955 23.3569 28.8901 23.3141 28.8901H23.2926C22.3069 28.8044 21.4926 28.183 21.0855 27.3258C20.9141 26.983 20.8284 26.5758 20.8284 26.1687C19.7784 23.1044 16.1355 22.1187 16.1355 22.1187H16.1569C14.9998 21.7973 14.1426 20.7258 14.1426 19.4616C14.1426 17.8544 15.6641 16.633 16.8855 16.7187C17.7168 16.7592 18.4138 17.3945 18.6679 17.6261C18.6824 17.6393 18.6954 17.6512 18.7069 17.6616C18.9259 17.8622 19.0205 18.0008 19.3348 18.4607C19.3896 18.541 19.4512 18.6311 19.5212 18.733C19.5605 18.7904 19.6023 18.8516 19.6466 18.9165C19.9167 19.3119 20.2794 19.8428 20.7212 20.4687C21.0426 20.7473 22.0712 21.6258 23.6141 21.6687C25.1569 21.6258 26.2069 20.7473 26.5069 20.4687C26.9487 19.8429 27.3113 19.312 27.5814 18.9166C27.6258 18.8517 27.6676 18.7904 27.7069 18.733C28.1784 18.0473 28.2855 17.8973 28.5212 17.6616C28.7355 17.4473 29.4641 16.7616 30.3426 16.7187Z" fill="white"/>
<path fill-rule="evenodd" clip-rule="evenodd" d="M16.3613 9.76836C19.5959 4.16706 27.6809 4.16705 30.9155 9.76836L45.7181 35.4014C48.9533 41.0037 44.9102 48.0072 38.441 48.0072H27.6662C29.1053 46.5794 30.9854 46.0758 30.9854 46.0758H30.964C32.1211 45.7544 32.9568 44.7044 32.9568 43.4615C32.9568 41.8972 31.4568 40.6758 30.2354 40.7401C29.3783 40.783 28.6497 41.4687 28.4568 41.6615C28.2211 41.8972 28.114 42.0472 27.664 42.7115L27.588 42.8227L27.5879 42.8228L27.5877 42.823L27.5876 42.8232C27.3131 43.2249 26.9331 43.7808 26.464 44.4258C26.164 44.7044 25.1354 45.5615 23.614 45.6258C22.0926 45.583 21.064 44.7044 20.764 44.4258C20.2497 43.6972 19.8426 43.1187 19.564 42.7115L19.4528 42.5471C19.0941 42.0167 18.9861 41.8569 18.7711 41.6615L18.7327 41.6267C18.481 41.3974 17.804 40.7807 16.9926 40.7401C15.7711 40.6758 14.2711 41.8972 14.2711 43.4615C14.2711 44.7044 15.1068 45.7544 16.264 46.0758H16.2426C16.2426 46.0758 18.1227 46.5794 19.5618 48.0072H8.83582C2.36655 48.0072 -1.67647 41.0037 1.55871 35.4014L16.3613 9.76836ZM30.3426 32.5758C31.5641 32.5116 33.0855 33.733 33.0855 35.3187C33.0855 36.583 32.2284 37.633 30.9855 37.9758H31.0069C31.0069 37.9758 27.3855 38.9616 26.3141 42.0258C26.3141 42.433 26.2284 42.8401 26.0569 43.183C25.6498 44.0401 24.8355 44.6401 23.8498 44.7473H23.8284C23.7426 44.7687 23.6569 44.7687 23.5712 44.7687C23.5284 44.7687 23.4856 44.7633 23.4427 44.758L23.4426 44.758L23.4426 44.758C23.3997 44.7526 23.3569 44.7473 23.3141 44.7473H23.2926C22.3069 44.6615 21.4926 44.0401 21.0855 43.183C20.9141 42.8401 20.8284 42.433 20.8284 42.0258C19.7784 38.9616 16.1355 37.9758 16.1355 37.9758H16.1569C14.9998 37.6544 14.1426 36.583 14.1426 35.3187C14.1426 33.7116 15.6641 32.4901 16.8855 32.5758C17.7168 32.6164 18.4138 33.2517 18.6679 33.4833L18.7069 33.5187C18.9259 33.7194 19.0205 33.8579 19.3348 34.3179C19.3896 34.3981 19.4512 34.4882 19.5212 34.5901L19.6467 34.7737C19.9167 35.169 20.2794 35.7 20.7212 36.3258C21.0426 36.6044 22.0712 37.483 23.6141 37.5258C25.1569 37.483 26.2069 36.6044 26.5069 36.3258C26.9487 35.7 27.3115 35.169 27.5815 34.7736L27.7069 34.5901C28.1784 33.9044 28.2855 33.7544 28.5212 33.5187C28.7355 33.3044 29.4641 32.6187 30.3426 32.5758ZM33.0855 27.3901C33.0855 25.8044 31.5641 24.583 30.3426 24.6473C29.4641 24.6901 28.7355 25.3758 28.5212 25.5901C28.2855 25.8258 28.1784 25.9758 27.7069 26.6616L27.5815 26.8451L27.5813 26.8453C27.3113 27.2407 26.9486 27.7715 26.5069 28.3973C26.2069 28.6758 25.1569 29.5544 23.6141 29.5973C22.0712 29.5544 21.0426 28.6758 20.7212 28.3973C20.2795 27.7716 19.9169 27.2407 19.6468 26.8453L19.6467 26.8452L19.5212 26.6616C19.4512 26.5597 19.3896 26.4696 19.3348 26.3893L19.3348 26.3893C19.0205 25.9294 18.9259 25.7908 18.7069 25.5901L18.6679 25.5547C18.4138 25.3231 17.7168 24.6878 16.8855 24.6473C15.6641 24.5616 14.1426 25.783 14.1426 27.3901C14.1426 28.6544 14.9998 29.7258 16.1569 30.0473H16.1355C16.1355 30.0473 19.7784 31.033 20.8284 34.0973C20.8284 34.5044 20.9141 34.9116 21.0855 35.2544C21.4926 36.1116 22.3069 36.733 23.2926 36.8187H23.3141C23.3569 36.8187 23.3998 36.8241 23.4426 36.8294C23.4855 36.8348 23.5284 36.8401 23.5712 36.8401H23.5712C23.6569 36.8401 23.7426 36.8401 23.8284 36.8187H23.8498C24.8355 36.7116 25.6498 36.1116 26.0569 35.2544C26.2284 34.9116 26.3141 34.5044 26.3141 34.0973C27.3855 31.033 31.0069 30.0473 31.0069 30.0473H30.9855C32.2284 29.7044 33.0855 28.6544 33.0855 27.3901ZM30.3426 16.7187C31.5641 16.6544 33.0855 17.8758 33.0855 19.4616C33.0855 20.7258 32.2284 21.7758 30.9855 22.1187H31.0069C31.0069 22.1187 27.3855 23.1044 26.3141 26.1687C26.3141 26.5758 26.2284 26.983 26.0569 27.3258C25.6498 28.183 24.8355 28.783 23.8498 28.8901H23.8284C23.7426 28.9116 23.6569 28.9116 23.5712 28.9116C23.5284 28.9116 23.4855 28.9062 23.4426 28.9008C23.3998 28.8955 23.3569 28.8901 23.3141 28.8901H23.2926C22.3069 28.8044 21.4926 28.183 21.0855 27.3258C20.9141 26.983 20.8284 26.5758 20.8284 26.1687C19.7784 23.1044 16.1355 22.1187 16.1355 22.1187H16.1569C14.9998 21.7973 14.1426 20.7258 14.1426 19.4616C14.1426 17.8544 15.6641 16.633 16.8855 16.7187C17.7168 16.7592 18.4138 17.3945 18.6679 17.6261C18.6824 17.6393 18.6954 17.6512 18.7069 17.6616C18.9259 17.8622 19.0205 18.0008 19.3348 18.4607C19.3896 18.541 19.4512 18.6311 19.5212 18.733C19.5605 18.7904 19.6023 18.8516 19.6466 18.9165C19.9167 19.3119 20.2794 19.8428 20.7212 20.4687C21.0426 20.7473 22.0712 21.6258 23.6141 21.6687C25.1569 21.6258 26.2069 20.7473 26.5069 20.4687C26.9487 19.8429 27.3113 19.312 27.5814 18.9166C27.6258 18.8517 27.6676 18.7904 27.7069 18.733C28.1784 18.0473 28.2855 17.8973 28.5212 17.6616C28.7355 17.4473 29.4641 16.7616 30.3426 16.7187Z" fill="#F59E0B"/>
<path d="M33.8136 44.5334C33.8136 42.9691 32.3136 41.7477 31.0922 41.812C30.2351 41.8549 29.5065 42.5406 29.3136 42.7334C29.0779 42.9691 28.9708 43.1191 28.5208 43.7834C28.2422 44.1906 27.8351 44.7906 27.3208 45.4977C27.0208 45.7763 25.9922 46.6334 24.4708 46.6977C22.9494 46.6549 21.9208 45.7763 21.6208 45.4977C21.1065 44.7691 20.6994 44.1906 20.4208 43.7834C19.9708 43.1191 19.8636 42.9477 19.6279 42.7334C19.4136 42.5406 18.7065 41.8549 17.8494 41.812C16.6279 41.7477 15.1279 42.9691 15.1279 44.5334C15.1279 45.7763 15.9636 46.8263 17.1208 47.1477C17.1208 47.1477 17.1208 47.1477 17.0994 47.1477C17.0994 47.1477 20.6994 48.112 21.7494 51.1549C21.7494 51.562 21.8351 51.9477 22.0065 52.2906C22.4136 53.1263 23.2279 53.7477 24.1922 53.8334C24.1922 53.8334 24.1922 53.8334 24.2136 53.8334C24.2994 53.8334 24.3851 53.8549 24.4708 53.8549C24.5565 53.8549 24.6422 53.8549 24.7279 53.8334C24.7279 53.8334 24.7279 53.8334 24.7494 53.8334C25.7136 53.7263 26.5279 53.1263 26.9351 52.2906C27.1065 51.9477 27.1922 51.562 27.1922 51.1549C28.2422 48.112 31.8422 47.1477 31.8422 47.1477C31.8422 47.1477 31.8422 47.1477 31.8208 47.1477C32.9779 46.8263 33.8136 45.7763 33.8136 44.5334Z" fill="#BC6705"/>
<path d="M33.9419 36.3902C33.9419 34.8045 32.4205 33.583 31.199 33.6473C30.3205 33.6902 29.5919 34.3759 29.3776 34.5902C29.1419 34.8259 29.0347 34.9759 28.5633 35.6616C28.2847 36.0687 27.8776 36.6687 27.3633 37.3973C27.0633 37.6759 26.0133 38.5545 24.4705 38.5973C22.9276 38.5545 21.899 37.6759 21.5776 37.3973C21.0633 36.6687 20.6562 36.0687 20.3776 35.6616C19.9062 34.9759 19.8205 34.8259 19.5633 34.5902C19.349 34.3973 18.6205 33.6902 17.7419 33.6473C16.5205 33.5616 14.999 34.783 14.999 36.3902C14.999 37.6545 15.8562 38.7259 17.0133 39.0473C17.0133 39.0473 17.0133 39.0473 16.9919 39.0473C16.9919 39.0473 20.6347 40.033 21.6847 43.0973C21.6847 43.5045 21.7705 43.9116 21.9419 44.2545C22.349 45.1116 23.1633 45.733 24.149 45.8187C24.149 45.8187 24.149 45.8187 24.1705 45.8187C24.2562 45.8187 24.3419 45.8402 24.4276 45.8402C24.5133 45.8402 24.599 45.8402 24.6847 45.8187C24.6847 45.8187 24.6847 45.8187 24.7062 45.8187C25.6919 45.7116 26.5062 45.1116 26.9133 44.2545C27.0847 43.9116 27.1705 43.5045 27.1705 43.0973C28.2419 40.033 31.8633 39.0473 31.8633 39.0473C31.8633 39.0473 31.8633 39.0473 31.8419 39.0473C33.0847 38.7045 33.9419 37.6545 33.9419 36.3902Z" fill="#BC6705"/>
<path d="M33.9419 28.462C33.9419 26.8762 32.4205 25.6548 31.199 25.7191C30.3205 25.7619 29.5919 26.4477 29.3776 26.6619C29.1419 26.8977 29.0347 27.0477 28.5633 27.7334C28.2847 28.1405 27.8776 28.7405 27.3633 29.4691C27.0633 29.7477 26.0133 30.6262 24.4705 30.6691C22.9276 30.6262 21.899 29.7477 21.5776 29.4691C21.0633 28.7405 20.6562 28.1405 20.3776 27.7334C19.9062 27.0477 19.8205 26.8977 19.5633 26.6619C19.349 26.4691 18.6205 25.7619 17.7419 25.7191C16.5205 25.6334 14.999 26.8548 14.999 28.462C14.999 29.7262 15.8562 30.7977 17.0133 31.1191C17.0133 31.1191 17.0133 31.1191 16.9919 31.1191C16.9919 31.1191 20.6347 32.1048 21.6847 35.1691C21.6847 35.5762 21.7705 35.9834 21.9419 36.3262C22.349 37.1834 23.1633 37.8048 24.149 37.8905C24.149 37.8905 24.149 37.8905 24.1705 37.8905C24.2562 37.8905 24.3419 37.9119 24.4276 37.9119C24.5133 37.9119 24.599 37.912 24.6847 37.8905C24.6847 37.8905 24.6847 37.8905 24.7062 37.8905C25.6919 37.7834 26.5062 37.1834 26.9133 36.3262C27.0847 35.9834 27.1705 35.5762 27.1705 35.1691C28.2419 32.1048 31.8633 31.1191 31.8633 31.1191C31.8633 31.1191 31.8633 31.1191 31.8419 31.1191C33.0847 30.7762 33.9419 29.7262 33.9419 28.462Z" fill="#BC6705"/>
<path d="M33.9419 20.5332C33.9419 18.9475 32.4205 17.7261 31.199 17.7904C30.3205 17.8332 29.5919 18.519 29.3776 18.7332C29.1419 18.969 29.0347 19.119 28.5633 19.8047C28.2847 20.2118 27.8776 20.8118 27.3633 21.5404C27.0633 21.819 26.0133 22.6975 24.4705 22.7404C22.9276 22.6975 21.899 21.819 21.5776 21.5404C21.0633 20.8118 20.6562 20.2118 20.3776 19.8047C19.9062 19.119 19.8205 18.969 19.5633 18.7332C19.349 18.5404 18.6205 17.8332 17.7419 17.7904C16.5205 17.7047 14.999 18.9261 14.999 20.5332C14.999 21.7975 15.8562 22.869 17.0133 23.1904C17.0133 23.1904 17.0133 23.1904 16.9919 23.1904C16.9919 23.1904 20.6347 24.1761 21.6847 27.2404C21.6847 27.6475 21.7705 28.0547 21.9419 28.3975C22.349 29.2547 23.1633 29.8761 24.149 29.9618C24.149 29.9618 24.149 29.9618 24.1705 29.9618C24.2562 29.9618 24.3419 29.9832 24.4276 29.9832C24.5133 29.9832 24.599 29.9832 24.6847 29.9618C24.6847 29.9618 24.6847 29.9618 24.7062 29.9618C25.6919 29.8547 26.5062 29.2547 26.9133 28.3975C27.0847 28.0547 27.1705 27.6475 27.1705 27.2404C28.2419 24.1761 31.8633 23.1904 31.8633 23.1904C31.8633 23.1904 31.8633 23.1904 31.8419 23.1904C33.0847 22.8475 33.9419 21.7975 33.9419 20.5332Z" fill="#BC6705"/>
<path d="M32.9572 43.4616C32.9572 41.8974 31.4572 40.6759 30.2358 40.7402C29.3786 40.7831 28.6501 41.4688 28.4572 41.6616C28.2215 41.8974 28.1143 42.0474 27.6643 42.7116C27.3858 43.1188 26.9786 43.7188 26.4643 44.4259C26.1643 44.7045 25.1358 45.5616 23.6143 45.6259C22.0929 45.5831 21.0643 44.7045 20.7643 44.4259C20.2501 43.6974 19.8429 43.1188 19.5643 42.7116C19.1143 42.0474 19.0072 41.8759 18.7715 41.6616C18.5572 41.4688 17.8501 40.7831 16.9929 40.7402C15.7715 40.6759 14.2715 41.8974 14.2715 43.4616C14.2715 44.7045 15.1072 45.7545 16.2643 46.0759C16.2643 46.0759 16.2643 46.0759 16.2429 46.0759C16.2429 46.0759 19.8429 47.0402 20.8929 50.0831C20.8929 50.4902 20.9786 50.8759 21.1501 51.2188C21.5572 52.0545 22.3715 52.6759 23.3358 52.7616C23.3358 52.7616 23.3358 52.7616 23.3572 52.7616C23.4429 52.7616 23.5286 52.7831 23.6143 52.7831C23.7001 52.7831 23.7858 52.7831 23.8715 52.7616C23.8715 52.7616 23.8715 52.7616 23.8929 52.7616C24.8572 52.6545 25.6715 52.0545 26.0786 51.2188C26.2501 50.8759 26.3358 50.4902 26.3358 50.0831C27.3858 47.0402 30.9858 46.0759 30.9858 46.0759C30.9858 46.0759 30.9858 46.0759 30.9643 46.0759C32.1215 45.7545 32.9572 44.7045 32.9572 43.4616Z" fill="white"/>
<path d="M33.0854 35.3184C33.0854 33.7327 31.564 32.5113 30.3426 32.5755C29.464 32.6184 28.7354 33.3041 28.5211 33.5184C28.2854 33.7541 28.1783 33.9041 27.7069 34.5898C27.4283 34.997 27.0211 35.597 26.5069 36.3255C26.2069 36.6041 25.1569 37.4827 23.614 37.5255C22.0711 37.4827 21.0426 36.6041 20.7211 36.3255C20.2069 35.597 19.7997 34.997 19.5211 34.5898C19.0497 33.9041 18.964 33.7541 18.7069 33.5184C18.4926 33.3255 17.764 32.6184 16.8854 32.5755C15.664 32.4898 14.1426 33.7113 14.1426 35.3184C14.1426 36.5827 14.9997 37.6541 16.1569 37.9755C16.1569 37.9755 16.1569 37.9755 16.1354 37.9755C16.1354 37.9755 19.7783 38.9613 20.8283 42.0255C20.8283 42.4327 20.914 42.8398 21.0854 43.1827C21.4926 44.0398 22.3069 44.6613 23.2926 44.747C23.2926 44.747 23.2926 44.747 23.314 44.747C23.3997 44.747 23.4854 44.7684 23.5711 44.7684C23.6569 44.7684 23.7426 44.7684 23.8283 44.747C23.8283 44.747 23.8283 44.747 23.8497 44.747C24.8354 44.6398 25.6497 44.0398 26.0569 43.1827C26.2283 42.8398 26.314 42.4327 26.314 42.0255C27.3854 38.9613 31.0069 37.9755 31.0069 37.9755C31.0069 37.9755 31.0069 37.9755 30.9854 37.9755C32.2283 37.6327 33.0854 36.5827 33.0854 35.3184Z" fill="white"/>
<path d="M33.0854 27.3902C33.0854 25.8045 31.564 24.583 30.3426 24.6473C29.464 24.6902 28.7354 25.3759 28.5211 25.5902C28.2854 25.8259 28.1783 25.9759 27.7069 26.6616C27.4283 27.0687 27.0211 27.6687 26.5069 28.3973C26.2069 28.6759 25.1569 29.5545 23.614 29.5973C22.0711 29.5545 21.0426 28.6759 20.7211 28.3973C20.2069 27.6687 19.7997 27.0687 19.5211 26.6616C19.0497 25.9759 18.964 25.8259 18.7069 25.5902C18.4926 25.3973 17.764 24.6902 16.8854 24.6473C15.664 24.5616 14.1426 25.783 14.1426 27.3902C14.1426 28.6545 14.9997 29.7259 16.1569 30.0473C16.1569 30.0473 16.1569 30.0473 16.1354 30.0473C16.1354 30.0473 19.7783 31.033 20.8283 34.0973C20.8283 34.5045 20.914 34.9116 21.0854 35.2545C21.4926 36.1116 22.3069 36.733 23.2926 36.8187C23.2926 36.8187 23.2926 36.8187 23.314 36.8187C23.3997 36.8187 23.4854 36.8402 23.5711 36.8402C23.6569 36.8402 23.7426 36.8402 23.8283 36.8187C23.8283 36.8187 23.8283 36.8187 23.8497 36.8187C24.8354 36.7116 25.6497 36.1116 26.0569 35.2545C26.2283 34.9116 26.314 34.5045 26.314 34.0973C27.3854 31.033 31.0069 30.0473 31.0069 30.0473C31.0069 30.0473 31.0069 30.0473 30.9854 30.0473C32.2283 29.7045 33.0854 28.6545 33.0854 27.3902Z" fill="white"/>
<path d="M33.0854 19.4615C33.0854 17.8757 31.564 16.6543 30.3426 16.7186C29.464 16.7615 28.7354 17.4472 28.5211 17.6615C28.2854 17.8972 28.1783 18.0472 27.7069 18.7329C27.4283 19.14 27.0211 19.74 26.5069 20.4686C26.2069 20.7472 25.1569 21.6257 23.614 21.6686C22.0711 21.6257 21.0426 20.7472 20.7211 20.4686C20.2069 19.74 19.7997 19.14 19.5211 18.7329C19.0497 18.0472 18.964 17.8972 18.7069 17.6615C18.4926 17.4686 17.764 16.7615 16.8854 16.7186C15.664 16.6329 14.1426 17.8543 14.1426 19.4615C14.1426 20.7257 14.9997 21.7972 16.1569 22.1186C16.1569 22.1186 16.1569 22.1186 16.1354 22.1186C16.1354 22.1186 19.7783 23.1043 20.8283 26.1686C20.8283 26.5757 20.914 26.9829 21.0854 27.3257C21.4926 28.1829 22.3069 28.8043 23.2926 28.89C23.2926 28.89 23.2926 28.89 23.314 28.89C23.3997 28.89 23.4854 28.9115 23.5711 28.9115C23.6569 28.9115 23.7426 28.9115 23.8283 28.89C23.8283 28.89 23.8283 28.89 23.8497 28.89C24.8354 28.7829 25.6497 28.1829 26.0569 27.3257C26.2283 26.9829 26.314 26.5757 26.314 26.1686C27.3854 23.1043 31.0069 22.1186 31.0069 22.1186C31.0069 22.1186 31.0069 22.1186 30.9854 22.1186C32.2283 21.7757 33.0854 20.7257 33.0854 19.4615Z" fill="white"/>
</g>
<path d="M81.6241 35.6431L80.143 31.4191H72.4904L70.9819 35.6431H66.7853L74.191 15.9494H78.7441L86.095 35.6431H81.6241ZM76.3579 20.5025L73.6699 28.1002H78.991L76.3579 20.5025ZM91.9776 27.6614V35.6431H88.165V20.9962H91.6759V23.0808C92.7456 21.6271 94.2541 20.7219 96.1741 20.7219C99.109 20.7219 101.139 22.6419 101.139 26.1802V35.6431H97.3536V27.4694C97.3536 25.3025 96.5033 24.0956 94.7753 24.0956C93.2667 24.0956 91.9776 25.3025 91.9776 27.6614ZM113.423 31.9402V35.2591C112.49 35.7254 111.613 35.9174 110.488 35.9174C107.471 35.9174 105.578 34.1894 105.578 30.8979V24.2602H102.616V20.9962H105.578V16.6625H109.364V20.9962H113.56V24.2602H109.364V30.0202C109.364 31.7208 110.132 32.4065 111.503 32.4065C112.216 32.4065 112.874 32.2419 113.423 31.9402ZM121.93 35.8899C117.542 35.8899 114.607 32.8454 114.607 28.2648C114.607 23.9036 117.651 20.7219 121.875 20.7219C126.511 20.7219 129.583 24.4796 128.897 29.2522H118.502C118.748 31.6385 119.9 32.9551 121.848 32.9551C123.521 32.9551 124.646 32.1322 125.084 30.6785H128.87C128.047 33.9974 125.496 35.8899 121.93 35.8899ZM121.793 23.5196C120.01 23.5196 118.886 24.6716 118.556 26.8385H124.865C124.755 24.8088 123.603 23.5196 121.793 23.5196ZM135.263 28.5391V35.6431H131.451V20.9962H134.962V23.8214C136.031 21.9562 138.308 20.8316 140.667 20.8316V24.7814C137.43 24.5345 135.263 25.3025 135.263 28.5391ZM147.063 17.5951C147.063 18.8842 146.021 19.8442 144.512 19.8442C143.031 19.8442 141.989 18.8842 141.989 17.5951C141.989 16.2511 143.031 15.2911 144.512 15.2911C146.021 15.2911 147.063 16.2511 147.063 17.5951ZM146.46 35.6431H142.647V20.9962H146.46V35.6431ZM156.326 35.9174C152.074 35.9174 148.892 32.5711 148.892 28.3196C148.892 24.0408 152.074 20.7219 156.326 20.7219C160.577 20.7219 163.759 24.0408 163.759 28.3196C163.759 32.5711 160.577 35.9174 156.326 35.9174ZM156.326 32.5436C158.218 32.5436 159.836 31.0351 159.836 28.3196C159.836 25.6042 158.218 24.1231 156.326 24.1231C154.433 24.1231 152.815 25.6042 152.815 28.3196C152.815 31.0351 154.433 32.5436 156.326 32.5436ZM170.004 28.5391V35.6431H166.192V20.9962H169.703V23.8214C170.772 21.9562 173.049 20.8316 175.408 20.8316V24.7814C172.171 24.5345 170.004 25.3025 170.004 28.5391Z" fill="black"/>
<defs>
<clipPath id="clip0_608_2159">
<rect width="53.5714" height="48" fill="white"/>
</clipPath>
</defs>
</svg>
