<svg width="598" height="163" viewBox="0 0 598 163" fill="none" xmlns="http://www.w3.org/2000/svg">
<g clip-path="url(#clip0_758_2429)">
<path fill-rule="evenodd" clip-rule="evenodd" d="M88.1753 28.5633L84.8582 24.3818C96.4357 15.9022 113.303 17.2961 123.141 28.5633H88.1753ZM99.4959 42.834L92.7038 34.272H127.067L132.011 42.834H99.4959ZM110.818 57.1064L104.024 48.5426H135.308L140.253 57.1064H110.818ZM120.361 71.3789L120.067 68.7664L115.346 62.8151H143.55L148.495 71.3789H120.361ZM121.964 85.6496L121.002 77.0876H151.792L156.736 85.6496H121.964ZM123.568 99.922L122.606 91.3582H160.033L164.978 99.922H123.568ZM125.172 114.193L124.209 105.631H168.275L173.219 114.193H125.172ZM126.775 128.465L125.813 119.901H176.516L176.72 120.256C178.262 122.925 179.317 125.688 179.931 128.465H126.775ZM128.379 142.736L127.417 134.174H180.587C180.62 137.103 180.191 139.989 179.356 142.736H128.379ZM130.664 163.073L129.02 148.444H176.925C173.452 154.66 167.704 159.598 160.516 161.81L151.424 163.073H130.664Z" fill="#D97706"/>
<path fill-rule="evenodd" clip-rule="evenodd" d="M55.561 33.1716C66.5453 14.1505 94.0005 14.1505 104.985 33.1716L155.252 120.217C166.238 139.241 152.508 163.024 130.54 163.024H93.9492C98.8364 158.175 105.222 156.464 105.222 156.464H105.149C109.079 155.373 111.917 151.807 111.917 147.587C111.917 142.275 106.823 138.127 102.675 138.345C99.7645 138.491 97.2904 140.819 96.6354 141.474C95.835 142.275 95.4712 142.784 93.943 145.04L93.6849 145.417C92.7525 146.781 91.4618 148.67 89.868 150.861C88.8493 151.807 85.3564 154.718 80.1899 154.936C75.0234 154.791 71.5305 151.807 70.5118 150.861C68.7654 148.387 67.3828 146.422 66.4368 145.04C66.3866 144.966 66.3377 144.893 66.2899 144.823C66.2139 144.711 66.141 144.603 66.0708 144.499L66.0687 144.496L66.0592 144.482L66.0591 144.482C64.8412 142.68 64.4743 142.138 63.7444 141.474C63.7056 141.439 63.662 141.4 63.6139 141.356C62.7592 140.577 60.4602 138.483 57.7046 138.345C53.5569 138.127 48.4631 142.275 48.4631 147.587C48.4631 151.807 51.3011 155.373 55.2305 156.464H55.1578C55.1578 156.464 61.5434 158.175 66.4306 163.024H30.0058C8.03718 163.024 -5.69221 139.241 5.29392 120.217L55.561 33.1716ZM103.039 110.622C107.187 110.403 112.354 114.551 112.354 119.936C112.354 124.229 109.443 127.795 105.222 128.959H105.295C105.295 128.959 92.9973 132.307 89.3589 142.712C89.3589 144.095 89.0678 145.478 88.4857 146.642C87.1031 149.553 84.3379 151.59 80.9906 151.954H80.9178C80.6268 152.027 80.3357 152.027 80.0446 152.027C79.8992 152.027 79.7538 152.008 79.6084 151.99L79.608 151.99C79.4625 151.972 79.3169 151.954 79.1714 151.954H79.0986C75.7513 151.663 72.9861 149.553 71.6036 146.642C71.0214 145.478 70.7303 144.095 70.7303 142.712C67.1647 132.307 54.7942 128.959 54.7942 128.959H54.8669C50.9375 127.868 48.0268 124.229 48.0268 119.936C48.0268 114.478 53.1933 110.331 57.3411 110.622C60.164 110.759 62.5309 112.917 63.3939 113.703C63.443 113.748 63.4872 113.788 63.5263 113.824C64.2698 114.505 64.5912 114.976 65.6584 116.537C65.8447 116.81 66.0536 117.116 66.2915 117.462C66.425 117.657 66.5671 117.865 66.7178 118.086L66.7183 118.086C67.6354 119.429 68.8668 121.232 70.3665 123.356C71.458 124.302 74.9509 127.286 80.1902 127.431C85.4294 127.286 88.9951 124.302 90.0138 123.356C91.5137 121.231 92.7452 119.429 93.6622 118.086L93.6628 118.085L93.6717 118.072C93.8189 117.857 93.958 117.653 94.0888 117.462C95.6897 115.133 96.0536 114.624 96.854 113.824C97.5817 113.096 100.056 110.767 103.039 110.622ZM112.354 93.0109C112.354 87.6261 107.187 83.4783 103.039 83.6966C100.056 83.8421 97.5817 86.1707 96.854 86.8984C96.0536 87.6988 95.6897 88.2082 94.0888 90.5368C93.9553 90.7319 93.8131 90.94 93.6625 91.1606L93.6622 91.161C92.7451 92.5035 91.5136 94.3062 90.0138 96.431C88.9951 97.3769 85.4294 100.36 80.1902 100.506C74.9509 100.36 71.458 97.3769 70.3665 96.431C68.867 94.3066 67.6357 92.5042 66.7187 91.1618L66.718 91.1609C66.6429 91.0509 66.5699 90.944 66.499 90.8402C66.4277 90.7358 66.3585 90.6347 66.2915 90.5368C66.0536 90.1907 65.8446 89.8849 65.6584 89.6123C64.5912 88.0504 64.2698 87.5799 63.5263 86.8984C63.4872 86.8631 63.443 86.8228 63.3939 86.7781C62.5309 85.9916 60.164 83.8343 57.3411 83.6966C53.1933 83.4055 48.0268 87.5533 48.0268 93.0109C48.0268 97.3042 50.9375 100.943 54.8669 102.034H54.7942C54.7942 102.034 67.1647 105.381 70.7303 115.787C70.7303 117.17 71.0214 118.552 71.6036 119.717C72.9861 122.627 75.7513 124.738 79.0986 125.029H79.1714C79.3169 125.029 79.4625 125.047 79.608 125.065C79.7535 125.083 79.8991 125.101 80.0446 125.101C80.3357 125.101 80.6268 125.101 80.9178 125.029H80.9906C84.3379 124.665 87.1031 122.627 88.4857 119.717C89.0678 118.552 89.3589 117.17 89.3589 115.787C92.9973 105.381 105.295 102.034 105.295 102.034H105.222C109.443 100.87 112.354 97.3042 112.354 93.0109ZM103.039 56.7735C107.187 56.5552 112.354 60.7029 112.354 66.0878C112.354 70.3811 109.443 73.9467 105.222 75.111H105.295C105.295 75.111 92.9973 78.4583 89.3589 88.8641C89.3589 90.2467 89.0678 91.6293 88.4857 92.7936C87.1031 95.7043 84.3379 97.7418 80.9906 98.1056H80.9178C80.6267 98.1784 80.3357 98.1784 80.0446 98.1784C79.8991 98.1784 79.7535 98.1602 79.608 98.142C79.4625 98.1238 79.3169 98.1056 79.1714 98.1056H79.0986C75.7513 97.8145 72.9861 95.7043 71.6035 92.7936C71.0214 91.6293 70.7303 90.2467 70.7303 88.8641C67.1647 78.4583 54.7941 75.111 54.7941 75.111H54.8669C50.9375 74.0195 48.0267 70.3811 48.0267 66.0878C48.0267 60.6302 53.1933 56.4824 57.341 56.7735C60.164 56.9112 62.5309 59.0685 63.3939 59.855C63.4429 59.8997 63.4871 59.94 63.5263 59.9753C64.2697 60.6568 64.5912 61.1273 65.6583 62.6892C65.8446 62.9618 66.0536 63.2676 66.2915 63.6136C66.4249 63.8087 66.5671 64.0168 66.7177 64.2373C67.6348 65.5799 68.8664 67.3828 70.3665 69.5078C71.458 70.4538 74.9508 73.4373 80.1901 73.5828C85.4294 73.4373 88.995 70.4538 90.0138 69.5078C91.5141 67.3824 92.7459 65.5791 93.6631 64.2365C93.8135 64.0163 93.9555 63.8085 94.0888 63.6136C95.6897 61.2851 96.0535 60.7757 96.854 59.9753C97.5816 59.2476 100.056 56.919 103.039 56.7735Z" fill="white"/>
<path fill-rule="evenodd" clip-rule="evenodd" d="M55.561 33.1716C66.5453 14.1505 94.0005 14.1505 104.985 33.1716L155.252 120.217C166.238 139.241 152.508 163.024 130.54 163.024H93.9492C98.8364 158.175 105.222 156.464 105.222 156.464H105.149C109.079 155.373 111.917 151.807 111.917 147.587C111.917 142.275 106.823 138.127 102.675 138.345C99.7645 138.491 97.2904 140.819 96.6354 141.474C95.835 142.275 95.4712 142.784 93.943 145.04L93.6849 145.417C92.7525 146.781 91.4618 148.67 89.868 150.861C88.8493 151.807 85.3564 154.718 80.1899 154.936C75.0234 154.791 71.5305 151.807 70.5118 150.861C68.7654 148.387 67.3828 146.422 66.4368 145.04C66.3866 144.966 66.3377 144.893 66.2899 144.823C66.2139 144.711 66.141 144.603 66.0708 144.499L66.0687 144.496L66.0592 144.482L66.0591 144.482C64.8412 142.68 64.4743 142.138 63.7444 141.474C63.7056 141.439 63.662 141.4 63.6139 141.356C62.7592 140.577 60.4602 138.483 57.7046 138.345C53.5569 138.127 48.4631 142.275 48.4631 147.587C48.4631 151.807 51.3011 155.373 55.2305 156.464H55.1578C55.1578 156.464 61.5434 158.175 66.4306 163.024H30.0058C8.03718 163.024 -5.69221 139.241 5.29392 120.217L55.561 33.1716ZM103.039 110.622C107.187 110.403 112.354 114.551 112.354 119.936C112.354 124.229 109.443 127.795 105.222 128.959H105.295C105.295 128.959 92.9973 132.307 89.3589 142.712C89.3589 144.095 89.0678 145.478 88.4857 146.642C87.1031 149.553 84.3379 151.59 80.9906 151.954H80.9178C80.6268 152.027 80.3357 152.027 80.0446 152.027C79.8992 152.027 79.7538 152.008 79.6084 151.99L79.608 151.99C79.4625 151.972 79.3169 151.954 79.1714 151.954H79.0986C75.7513 151.663 72.9861 149.553 71.6036 146.642C71.0214 145.478 70.7303 144.095 70.7303 142.712C67.1647 132.307 54.7942 128.959 54.7942 128.959H54.8669C50.9375 127.868 48.0268 124.229 48.0268 119.936C48.0268 114.478 53.1933 110.331 57.3411 110.622C60.164 110.759 62.5309 112.917 63.3939 113.703C63.443 113.748 63.4872 113.788 63.5263 113.824C64.2698 114.505 64.5912 114.976 65.6584 116.537C65.8447 116.81 66.0536 117.116 66.2915 117.462C66.425 117.657 66.5671 117.865 66.7178 118.086L66.7183 118.086C67.6354 119.429 68.8668 121.232 70.3665 123.356C71.458 124.302 74.9509 127.286 80.1902 127.431C85.4294 127.286 88.9951 124.302 90.0138 123.356C91.5137 121.231 92.7452 119.429 93.6622 118.086L93.6628 118.085L93.6717 118.072C93.8189 117.857 93.958 117.653 94.0888 117.462C95.6897 115.133 96.0536 114.624 96.854 113.824C97.5817 113.096 100.056 110.767 103.039 110.622ZM112.354 93.0109C112.354 87.6261 107.187 83.4783 103.039 83.6966C100.056 83.8421 97.5817 86.1707 96.854 86.8984C96.0536 87.6988 95.6897 88.2082 94.0888 90.5368C93.9553 90.7319 93.8131 90.94 93.6625 91.1606L93.6622 91.161C92.7451 92.5035 91.5136 94.3062 90.0138 96.431C88.9951 97.3769 85.4294 100.36 80.1902 100.506C74.9509 100.36 71.458 97.3769 70.3665 96.431C68.867 94.3066 67.6357 92.5042 66.7187 91.1618L66.718 91.1609C66.6429 91.0509 66.5699 90.944 66.499 90.8402C66.4277 90.7358 66.3585 90.6347 66.2915 90.5368C66.0536 90.1907 65.8446 89.8849 65.6584 89.6123C64.5912 88.0504 64.2698 87.5799 63.5263 86.8984C63.4872 86.8631 63.443 86.8228 63.3939 86.7781C62.5309 85.9916 60.164 83.8343 57.3411 83.6966C53.1933 83.4055 48.0268 87.5533 48.0268 93.0109C48.0268 97.3042 50.9375 100.943 54.8669 102.034H54.7942C54.7942 102.034 67.1647 105.381 70.7303 115.787C70.7303 117.17 71.0214 118.552 71.6036 119.717C72.9861 122.627 75.7513 124.738 79.0986 125.029H79.1714C79.3169 125.029 79.4625 125.047 79.608 125.065C79.7535 125.083 79.8991 125.101 80.0446 125.101C80.3357 125.101 80.6268 125.101 80.9178 125.029H80.9906C84.3379 124.665 87.1031 122.627 88.4857 119.717C89.0678 118.552 89.3589 117.17 89.3589 115.787C92.9973 105.381 105.295 102.034 105.295 102.034H105.222C109.443 100.87 112.354 97.3042 112.354 93.0109ZM103.039 56.7735C107.187 56.5552 112.354 60.7029 112.354 66.0878C112.354 70.3811 109.443 73.9467 105.222 75.111H105.295C105.295 75.111 92.9973 78.4583 89.3589 88.8641C89.3589 90.2467 89.0678 91.6293 88.4857 92.7936C87.1031 95.7043 84.3379 97.7418 80.9906 98.1056H80.9178C80.6267 98.1784 80.3357 98.1784 80.0446 98.1784C79.8991 98.1784 79.7535 98.1602 79.608 98.142C79.4625 98.1238 79.3169 98.1056 79.1714 98.1056H79.0986C75.7513 97.8145 72.9861 95.7043 71.6035 92.7936C71.0214 91.6293 70.7303 90.2467 70.7303 88.8641C67.1647 78.4583 54.7941 75.111 54.7941 75.111H54.8669C50.9375 74.0195 48.0267 70.3811 48.0267 66.0878C48.0267 60.6302 53.1933 56.4824 57.341 56.7735C60.164 56.9112 62.5309 59.0685 63.3939 59.855C63.4429 59.8997 63.4871 59.94 63.5263 59.9753C64.2697 60.6568 64.5912 61.1273 65.6583 62.6892C65.8446 62.9618 66.0536 63.2676 66.2915 63.6136C66.4249 63.8087 66.5671 64.0168 66.7177 64.2373C67.6348 65.5799 68.8664 67.3828 70.3665 69.5078C71.458 70.4538 74.9508 73.4373 80.1901 73.5828C85.4294 73.4373 88.995 70.4538 90.0138 69.5078C91.5141 67.3824 92.7459 65.5791 93.6631 64.2365C93.8135 64.0163 93.9555 63.8085 94.0888 63.6136C95.6897 61.2851 96.0535 60.7757 96.854 59.9753C97.5816 59.2476 100.056 56.919 103.039 56.7735Z" fill="#F59E0B"/>
<path d="M114.827 151.228C114.827 145.916 109.733 141.768 105.586 141.986C102.675 142.132 100.201 144.46 99.5459 145.115C98.7455 145.916 98.3816 146.425 96.8535 148.681C95.9075 150.064 94.5249 152.101 92.7785 154.502C91.7598 155.448 88.2669 158.359 83.1004 158.577C77.9339 158.432 74.441 155.448 73.4223 154.502C71.6758 152.028 70.2933 150.064 69.3473 148.681C67.8191 146.425 67.4553 145.843 66.6549 145.115C65.9272 144.46 63.5258 142.132 60.6151 141.986C56.4674 141.768 51.3736 145.916 51.3736 151.228C51.3736 155.448 54.2116 159.014 58.141 160.105C58.141 160.105 58.141 160.105 58.0682 160.105C58.0682 160.105 70.2932 163.38 73.8589 173.713C73.8589 175.096 74.1499 176.405 74.7321 177.57C76.1147 180.408 78.8799 182.518 82.1544 182.809C82.1544 182.809 82.1544 182.809 82.2272 182.809C82.5182 182.809 82.8093 182.882 83.1004 182.882C83.3915 182.882 83.6825 182.882 83.9736 182.809C83.9736 182.809 83.9736 182.809 84.0464 182.809C87.3209 182.445 90.0861 180.408 91.4687 177.57C92.0508 176.405 92.3419 175.096 92.3419 173.713C95.9075 163.38 108.133 160.105 108.133 160.105C108.133 160.105 108.133 160.105 108.06 160.105C111.989 159.014 114.827 155.448 114.827 151.228Z" fill="#BC6705"/>
<path d="M115.264 123.575C115.264 118.19 110.098 114.043 105.95 114.261C102.966 114.407 100.492 116.735 99.7645 117.463C98.964 118.263 98.6002 118.773 96.9993 121.101C96.0533 122.484 94.6707 124.521 92.9243 126.995C91.9056 127.941 88.3399 130.925 83.1006 131.07C77.8614 130.925 74.3685 127.941 73.277 126.995C71.5306 124.521 70.148 122.484 69.202 121.101C67.6011 118.773 67.31 118.263 66.4368 117.463C65.7091 116.808 63.235 114.407 60.2515 114.261C56.1038 113.97 50.9372 118.118 50.9372 123.575C50.9372 127.869 53.848 131.507 57.7774 132.599C57.7774 132.599 57.7774 132.599 57.7047 132.599C57.7047 132.599 70.0752 135.946 73.6408 146.352C73.6408 147.734 73.9319 149.117 74.514 150.281C75.8966 153.192 78.6618 155.302 82.0091 155.593C82.0091 155.593 82.0091 155.593 82.0819 155.593C82.373 155.593 82.664 155.666 82.9551 155.666C83.2462 155.666 83.5372 155.666 83.8283 155.593C83.8283 155.593 83.8283 155.593 83.9011 155.593C87.2484 155.229 90.0136 153.192 91.3962 150.281C91.9783 149.117 92.2694 147.734 92.2694 146.352C95.9078 135.946 108.206 132.599 108.206 132.599C108.206 132.599 108.206 132.599 108.133 132.599C112.353 131.434 115.264 127.869 115.264 123.575Z" fill="#BC6705"/>
<path d="M115.264 96.652C115.264 91.2671 110.098 87.1194 105.95 87.3377C102.966 87.4832 100.492 89.8118 99.7645 90.5395C98.964 91.3399 98.6002 91.8493 96.9993 94.1778C96.0533 95.5604 94.6707 97.5979 92.9243 100.072C91.9056 101.018 88.3399 104.002 83.1006 104.147C77.8614 104.002 74.3685 101.018 73.277 100.072C71.5306 97.5979 70.148 95.5604 69.202 94.1778C67.6011 91.8493 67.31 91.3399 66.4368 90.5395C65.7091 89.8845 63.235 87.4832 60.2515 87.3377C56.1038 87.0466 50.9372 91.1944 50.9372 96.652C50.9372 100.945 53.848 104.584 57.7774 105.675C57.7774 105.675 57.7774 105.675 57.7047 105.675C57.7047 105.675 70.0752 109.022 73.6408 119.428C73.6408 120.811 73.9319 122.193 74.514 123.358C75.8966 126.268 78.6618 128.379 82.0091 128.67C82.0091 128.67 82.0091 128.67 82.0819 128.67C82.373 128.67 82.664 128.743 82.9551 128.743C83.2462 128.743 83.5372 128.743 83.8283 128.67C83.8283 128.67 83.8283 128.67 83.9011 128.67C87.2484 128.306 90.0136 126.268 91.3962 123.358C91.9783 122.193 92.2694 120.811 92.2694 119.428C95.9078 109.022 108.206 105.675 108.206 105.675C108.206 105.675 108.206 105.675 108.133 105.675C112.353 104.511 115.264 100.945 115.264 96.652Z" fill="#BC6705"/>
<path d="M115.264 69.7267C115.264 64.3418 110.098 60.1941 105.95 60.4124C102.966 60.5579 100.492 62.8865 99.7645 63.6142C98.9641 64.4146 98.6002 64.924 96.9993 67.2526C96.0533 68.6351 94.6708 70.6726 92.9243 73.1468C91.9056 74.0927 88.3399 77.0762 83.1007 77.2218C77.8614 77.0762 74.3685 74.0927 73.277 73.1468C71.5306 70.6726 70.148 68.6351 69.202 67.2526C67.6011 64.924 67.31 64.4146 66.4368 63.6142C65.7091 62.9593 63.235 60.5579 60.2516 60.4124C56.1038 60.1213 50.9373 64.2691 50.9373 69.7267C50.9373 74.02 53.848 77.6584 57.7775 78.7499C57.7775 78.7499 57.7774 78.7499 57.7047 78.7499C57.7047 78.7499 70.0752 82.0972 73.6408 92.503C73.6408 93.8856 73.9319 95.2682 74.5141 96.4325C75.8966 99.3432 78.6618 101.453 82.0091 101.745C82.0091 101.745 82.0091 101.745 82.0819 101.745C82.373 101.745 82.6641 101.817 82.9551 101.817C83.2462 101.817 83.5373 101.817 83.8283 101.745C83.8283 101.745 83.8283 101.745 83.9011 101.745C87.2484 101.381 90.0136 99.3432 91.3962 96.4325C91.9783 95.2682 92.2694 93.8856 92.2694 92.503C95.9078 82.0972 108.206 78.7499 108.206 78.7499C108.206 78.7499 108.206 78.7499 108.133 78.7499C112.353 77.5856 115.264 74.02 115.264 69.7267Z" fill="#BC6705"/>
<path d="M111.917 147.587C111.917 142.275 106.823 138.127 102.675 138.346C99.7645 138.491 97.2903 140.82 96.6354 141.475C95.835 142.275 95.4711 142.784 93.943 145.04C92.997 146.423 91.6145 148.46 89.868 150.862C88.8493 151.808 85.3564 154.718 80.1899 154.937C75.0234 154.791 71.5305 151.808 70.5118 150.862C68.7653 148.388 67.3828 146.423 66.4368 145.04C64.9087 142.784 64.5448 142.202 63.7444 141.475C63.0167 140.82 60.6153 138.491 57.7046 138.346C53.5569 138.127 48.4631 142.275 48.4631 147.587C48.4631 151.808 51.3011 155.373 55.2305 156.465C55.2305 156.465 55.2305 156.465 55.1578 156.465C55.1578 156.465 67.3828 159.739 70.9484 170.072C70.9484 171.455 71.2395 172.765 71.8216 173.929C73.2042 176.767 75.9694 178.877 79.2439 179.168C79.2439 179.168 79.2439 179.168 79.3167 179.168C79.6078 179.168 79.8988 179.241 80.1899 179.241C80.481 179.241 80.772 179.241 81.0631 179.168C81.0631 179.168 81.0631 179.168 81.1359 179.168C84.4104 178.805 87.1756 176.767 88.5582 173.929C89.1403 172.765 89.4314 171.455 89.4314 170.072C92.997 159.739 105.222 156.465 105.222 156.465C105.222 156.465 105.222 156.465 105.149 156.465C109.079 155.373 111.917 151.808 111.917 147.587Z" fill="white"/>
<path d="M112.354 119.936C112.354 114.551 107.187 110.404 103.039 110.622C100.056 110.767 97.5817 113.096 96.854 113.824C96.0536 114.624 95.6897 115.133 94.0888 117.462C93.1428 118.845 91.7602 120.882 90.0138 123.356C88.9951 124.302 85.4294 127.286 80.1902 127.431C74.9509 127.286 71.458 124.302 70.3665 123.356C68.6201 120.882 67.2375 118.845 66.2915 117.462C64.6906 115.133 64.3995 114.624 63.5263 113.824C62.7986 113.169 60.3245 110.767 57.3411 110.622C53.1933 110.331 48.0268 114.479 48.0268 119.936C48.0268 124.229 50.9375 127.868 54.8669 128.959C54.8669 128.959 54.8669 128.959 54.7942 128.959C54.7942 128.959 67.1647 132.307 70.7303 142.712C70.7303 144.095 71.0214 145.478 71.6036 146.642C72.9861 149.553 75.7513 151.663 79.0986 151.954C79.0986 151.954 79.0986 151.954 79.1714 151.954C79.4625 151.954 79.7536 152.027 80.0446 152.027C80.3357 152.027 80.6268 152.027 80.9178 151.954C80.9178 151.954 80.9178 151.954 80.9906 151.954C84.3379 151.59 87.1031 149.553 88.4857 146.642C89.0678 145.478 89.3589 144.095 89.3589 142.712C92.9973 132.307 105.295 128.959 105.295 128.959C105.295 128.959 105.295 128.959 105.222 128.959C109.443 127.795 112.354 124.229 112.354 119.936Z" fill="white"/>
<path d="M112.354 93.0113C112.354 87.6265 107.187 83.4787 103.039 83.697C100.056 83.8426 97.5817 86.1712 96.854 86.8988C96.0536 87.6993 95.6897 88.2087 94.0888 90.5372C93.1428 91.9198 91.7602 93.9573 90.0138 96.4314C88.9951 97.3774 85.4294 100.361 80.1902 100.506C74.9509 100.361 71.458 97.3774 70.3665 96.4314C68.6201 93.9573 67.2375 91.9198 66.2915 90.5372C64.6906 88.2087 64.3995 87.6993 63.5263 86.8988C62.7986 86.2439 60.3245 83.8426 57.3411 83.697C53.1933 83.406 48.0268 87.5537 48.0268 93.0113C48.0268 97.3046 50.9375 100.943 54.8669 102.035C54.8669 102.035 54.8669 102.035 54.7942 102.035C54.7942 102.035 67.1647 105.382 70.7303 115.788C70.7303 117.17 71.0214 118.553 71.6036 119.717C72.9861 122.628 75.7513 124.738 79.0986 125.029C79.0986 125.029 79.0986 125.029 79.1714 125.029C79.4625 125.029 79.7536 125.102 80.0446 125.102C80.3357 125.102 80.6268 125.102 80.9178 125.029C80.9178 125.029 80.9178 125.029 80.9906 125.029C84.3379 124.665 87.1031 122.628 88.4857 119.717C89.0678 118.553 89.3589 117.17 89.3589 115.788C92.9973 105.382 105.295 102.035 105.295 102.035C105.295 102.035 105.295 102.035 105.222 102.035C109.443 100.87 112.354 97.3046 112.354 93.0113Z" fill="white"/>
<path d="M112.354 66.088C112.354 60.7032 107.187 56.5554 103.039 56.7737C100.056 56.9192 97.5816 59.2478 96.854 59.9755C96.0535 60.7759 95.6897 61.2853 94.0888 63.6139C93.1428 64.9965 91.7602 67.034 90.0138 69.5081C88.995 70.4541 85.4294 73.4375 80.1901 73.5831C74.9508 73.4375 71.458 70.4541 70.3665 69.5081C68.62 67.034 67.2374 64.9965 66.2915 63.6139C64.6906 61.2853 64.3995 60.7759 63.5263 59.9755C62.7986 59.3206 60.3245 56.9192 57.341 56.7737C53.1933 56.4826 48.0267 60.6304 48.0267 66.088C48.0267 70.3813 50.9374 74.0197 54.8669 75.1112C54.8669 75.1112 54.8669 75.1112 54.7941 75.1112C54.7941 75.1112 67.1647 78.4585 70.7303 88.8643C70.7303 90.2469 71.0214 91.6295 71.6035 92.7938C72.9861 95.7045 75.7513 97.8148 79.0986 98.1059C79.0986 98.1059 79.0986 98.1059 79.1714 98.1059C79.4625 98.1059 79.7535 98.1786 80.0446 98.1786C80.3357 98.1786 80.6267 98.1786 80.9178 98.1059C80.9178 98.1059 80.9178 98.1059 80.9906 98.1059C84.3379 97.742 87.1031 95.7045 88.4857 92.7938C89.0678 91.6295 89.3589 90.2469 89.3589 88.8643C92.9973 78.4585 105.295 75.1112 105.295 75.1112C105.295 75.1112 105.295 75.1112 105.222 75.1112C109.443 73.9469 112.354 70.3813 112.354 66.088Z" fill="white"/>
</g>
<path d="M277.181 121.558L272.152 107.214H246.165L241.042 121.558H226.791L251.94 54.681H267.401L292.364 121.558H277.181ZM259.298 70.1428L250.17 95.9433H268.24L259.298 70.1428ZM312.34 94.453V121.558H299.393V71.8193H311.315V78.8982C314.948 73.9616 320.071 70.8879 326.591 70.8879C336.557 70.8879 343.45 77.4079 343.45 89.4233V121.558H330.596V93.801C330.596 86.4428 327.708 82.3445 321.84 82.3445C316.718 82.3445 312.34 86.4428 312.34 94.453ZM385.165 108.983V120.254C381.998 121.837 379.018 122.489 375.199 122.489C364.953 122.489 358.526 116.621 358.526 105.444V82.9033H348.467V71.8193H358.526V57.1028H371.38V71.8193H385.631V82.9033H371.38V102.463C371.38 108.238 373.988 110.567 378.645 110.567C381.067 110.567 383.302 110.008 385.165 108.983ZM414.054 122.396C399.151 122.396 389.185 112.057 389.185 96.5022C389.185 81.6925 399.524 70.8879 413.868 70.8879C429.609 70.8879 440.041 83.6485 437.712 99.8553H402.411C403.25 107.959 407.162 112.43 413.775 112.43C419.456 112.43 423.275 109.635 424.766 104.699H437.619C434.825 115.969 426.163 122.396 414.054 122.396ZM413.588 80.3885C407.534 80.3885 403.715 84.3005 402.598 91.6588H424.02C423.648 84.7662 419.736 80.3885 413.588 80.3885ZM459.331 97.4336V121.558H446.384V71.8193H458.306V81.413C461.939 75.0793 469.67 71.2605 477.68 71.2605V84.673C466.689 83.8348 459.331 86.4428 459.331 97.4336ZM499.401 60.2696C499.401 64.6473 495.862 67.9073 490.739 67.9073C485.709 67.9073 482.17 64.6473 482.17 60.2696C482.17 55.7056 485.709 52.4456 490.739 52.4456C495.862 52.4456 499.401 55.7056 499.401 60.2696ZM497.352 121.558H484.405V71.8193H497.352V121.558ZM530.855 122.489C516.418 122.489 505.613 111.126 505.613 96.6885C505.613 82.1582 516.418 70.8879 530.855 70.8879C545.292 70.8879 556.097 82.1582 556.097 96.6885C556.097 111.126 545.292 122.489 530.855 122.489ZM530.855 111.032C537.282 111.032 542.777 105.91 542.777 96.6885C542.777 87.4673 537.282 82.4376 530.855 82.4376C524.428 82.4376 518.933 87.4673 518.933 96.6885C518.933 105.91 524.428 111.032 530.855 111.032ZM577.306 97.4336V121.558H564.359V71.8193H576.281V81.413C579.914 75.0793 587.645 71.2605 595.655 71.2605V84.673C584.664 83.8348 577.306 86.4428 577.306 97.4336Z" fill="white"/>
<defs>
<clipPath id="clip0_758_2429">
<rect width="181.92" height="163" fill="white"/>
</clipPath>
</defs>
</svg>
