<svg width="24" height="25" viewBox="0 0 24 25" fill="none" xmlns="http://www.w3.org/2000/svg">
<path d="M17.9998 8.7998C17.9998 7.20851 17.3676 5.68238 16.2424 4.55716C15.1172 3.43195 13.5911 2.7998 11.9998 2.7998C10.4085 2.7998 8.88233 3.43195 7.75712 4.55716C6.6319 5.68238 5.99976 7.20851 5.99976 8.7998C5.99976 15.7998 2.99976 17.7998 2.99976 17.7998H20.9998C20.9998 17.7998 17.9998 15.7998 17.9998 8.7998Z" stroke="#0E1726" stroke-width="1.5" stroke-linecap="round" stroke-linejoin="round"/>
<path d="M13.7298 21.7998C13.554 22.1029 13.3016 22.3545 12.998 22.5293C12.6944 22.7042 12.3502 22.7963 11.9998 22.7963C11.6494 22.7963 11.3052 22.7042 11.0015 22.5293C10.6979 22.3545 10.4456 22.1029 10.2698 21.7998" stroke="#0E1726" stroke-width="1.5" stroke-linecap="round" stroke-linejoin="round"/>
</svg>
