<svg width="24" height="24" viewBox="0 0 24 24" fill="none" xmlns="http://www.w3.org/2000/svg">
<path d="M17.7541 13.9997C18.9961 13.9997 20.0029 15.0065 20.0029 16.2486V17.167C20.0029 17.7404 19.8237 18.2994 19.4903 18.7659C17.9445 20.9292 15.4202 22.0008 11.9999 22.0008C8.57891 22.0008 6.05595 20.9287 4.51379 18.7643C4.18182 18.2984 4.00342 17.7406 4.00342 17.1685V16.2486C4.00342 15.0065 5.01027 13.9997 6.25229 13.9997H17.7541ZM11.9999 2.00439C14.7613 2.00439 16.9999 4.24297 16.9999 7.00439C16.9999 9.76582 14.7613 12.0044 11.9999 12.0044C9.23845 12.0044 6.99988 9.76582 6.99988 7.00439C6.99988 4.24297 9.23845 2.00439 11.9999 2.00439Z" fill="#D97706"/>
</svg>
