<svg width="32" height="28" viewBox="0 0 32 28" fill="none" xmlns="http://www.w3.org/2000/svg">
<g clip-path="url(#clip0_626_2207)">
<path fill-rule="evenodd" clip-rule="evenodd" d="M15.147 4.90718L14.5771 4.18885C16.5658 2.73272 19.4626 2.97217 21.1526 4.90718H15.147ZM17.0917 7.35872L15.9249 5.88781H21.827L22.6764 7.35872H17.0917ZM19.0367 9.81054L17.8696 8.33934H23.2427L24.0923 9.81054H19.0367ZM20.6756 12.2621L20.6251 11.8129L19.8146 10.7912H24.6586L25.508 12.2621H20.6756ZM20.9511 14.7136L20.7858 13.2427H26.0743L26.9237 14.7136H20.9511ZM21.2265 17.1652L21.0612 15.6942H27.49L28.3394 17.1652H21.2265ZM21.502 19.6167L21.3367 18.1458H28.9057L29.7551 19.6167H21.502ZM21.7774 22.0682L21.6122 20.5973H30.3214L30.3567 20.6584C30.6214 21.1167 30.8026 21.5912 30.9081 22.0682H21.7774ZM22.0529 24.5198L21.8876 23.0489H31.0208C31.0265 23.5521 30.9529 24.0478 30.8094 24.5198H22.0529ZM22.4455 28.0135L22.1631 25.5004H30.3918C29.7959 26.5671 28.8097 27.4149 27.5766 27.7955L26.007 28.0135H22.4455Z" fill="#D97706"/>
<path fill-rule="evenodd" clip-rule="evenodd" d="M9.54424 5.69813C11.4311 2.4307 16.1473 2.4307 18.0342 5.69813L26.669 20.6508C28.5562 23.9187 26.1978 28.0041 22.4241 28.0041H16.1392C16.9786 27.1715 18.0751 26.8778 18.0751 26.8778H18.0626C18.7376 26.6903 19.2251 26.0778 19.2251 25.3528C19.2251 24.4403 18.3501 23.7278 17.6376 23.7653C17.1376 23.7903 16.7126 24.1903 16.6001 24.3028C16.4626 24.4403 16.4001 24.5278 16.1376 24.9153L16.0932 24.9802C15.9331 25.2145 15.7113 25.5389 15.4376 25.9153C15.2626 26.0778 14.6626 26.5778 13.7751 26.6153C12.8876 26.5903 12.2876 26.0778 12.1126 25.9153C11.8126 25.4903 11.5751 25.1528 11.4126 24.9153L11.3477 24.8194C11.1385 24.51 11.0755 24.4168 10.9501 24.3028L10.9277 24.2825C10.7808 24.1487 10.3859 23.789 9.91257 23.7653C9.20007 23.7278 8.32507 24.4403 8.32507 25.3528C8.32507 26.0778 8.81257 26.6903 9.48757 26.8778H9.47507C9.47507 26.8778 10.5715 27.1715 11.411 28.0041H5.1544C1.38065 28.0041 -0.97778 23.9187 0.909407 20.6508L9.54424 5.69813ZM17.6999 19.0026C18.4124 18.9651 19.2999 19.6776 19.2999 20.6026C19.2999 21.3401 18.7999 21.9526 18.0749 22.1526H18.0874C18.0874 22.1526 15.9749 22.7276 15.3499 24.5151C15.3499 24.7526 15.2999 24.9901 15.1999 25.1901C14.9624 25.6901 14.4874 26.0401 13.9124 26.1026H13.8999C13.8499 26.1151 13.7999 26.1151 13.7499 26.1151C13.7249 26.1151 13.6999 26.112 13.6749 26.1088C13.6499 26.1057 13.6249 26.1026 13.5999 26.1026H13.5874C13.0124 26.0526 12.5374 25.6901 12.2999 25.1901C12.1999 24.9901 12.1499 24.7526 12.1499 24.5151C11.5374 22.7276 9.41238 22.1526 9.41238 22.1526H9.42488C8.74988 21.9651 8.24988 21.3401 8.24988 20.6026C8.24988 19.6651 9.13738 18.9526 9.84988 19.0026C10.3348 19.0262 10.7414 19.3968 10.8896 19.5319L10.9124 19.5526C11.0401 19.6697 11.0953 19.7505 11.2786 20.0188L11.2787 20.0188C11.3107 20.0657 11.3465 20.1182 11.3874 20.1776L11.4606 20.2848L11.4607 20.2848L11.4609 20.2852C11.6184 20.5157 11.8299 20.8253 12.0874 21.1901C12.2749 21.3526 12.8749 21.8651 13.7749 21.8901C14.6749 21.8651 15.2874 21.3526 15.4624 21.1901C15.7201 20.825 15.9317 20.5153 16.0892 20.2846L16.1624 20.1776C16.4374 19.7776 16.4999 19.6901 16.6374 19.5526C16.7624 19.4276 17.1874 19.0276 17.6999 19.0026ZM19.2999 15.9778C19.2999 15.0528 18.4124 14.3403 17.6999 14.3778C17.1874 14.4028 16.7624 14.8028 16.6374 14.9278C16.4999 15.0653 16.4374 15.1528 16.1624 15.5528L16.0893 15.6598L16.0892 15.6599C15.9316 15.8905 15.7201 16.2002 15.4624 16.5653C15.2874 16.7278 14.6749 17.2403 13.7749 17.2653C12.8749 17.2403 12.2749 16.7278 12.0874 16.5653C11.8297 16.2002 11.6181 15.8905 11.4606 15.6599L11.4606 15.6599L11.3874 15.5528C11.3465 15.4934 11.3107 15.4409 11.2787 15.3941L11.2786 15.394C11.0953 15.1257 11.0401 15.0449 10.9124 14.9278L10.8896 14.9071C10.7414 14.772 10.3348 14.4014 9.84988 14.3778C9.13738 14.3278 8.24988 15.0403 8.24988 15.9778C8.24988 16.7153 8.74988 17.3403 9.42488 17.5278H9.41238C9.41238 17.5278 11.5374 18.1028 12.1499 19.8903C12.1499 20.1278 12.1999 20.3653 12.2999 20.5653C12.5374 21.0653 13.0124 21.4278 13.5874 21.4778H13.5999C13.6249 21.4778 13.6498 21.4809 13.6748 21.484L13.6749 21.484C13.6999 21.4872 13.7249 21.4903 13.7499 21.4903C13.7999 21.4903 13.8499 21.4903 13.8999 21.4778H13.9124C14.4874 21.4153 14.9624 21.0653 15.1999 20.5653C15.2999 20.3653 15.3499 20.1278 15.3499 19.8903C15.9749 18.1028 18.0874 17.5278 18.0874 17.5278H18.0749C18.7999 17.3278 19.2999 16.7153 19.2999 15.9778ZM17.7 9.75266C18.4125 9.71516 19.3 10.4277 19.3 11.3527C19.3 12.0902 18.8 12.7027 18.075 12.9027H18.0875C18.0875 12.9027 15.975 13.4777 15.35 15.2652C15.35 15.5027 15.3 15.7402 15.2 15.9402C14.9625 16.4402 14.4875 16.7902 13.9125 16.8527H13.9C13.85 16.8652 13.8 16.8652 13.75 16.8652C13.725 16.8652 13.7 16.862 13.675 16.8589C13.65 16.8558 13.625 16.8527 13.6 16.8527H13.5875C13.0125 16.8027 12.5375 16.4402 12.3 15.9402C12.2 15.7402 12.15 15.5027 12.15 15.2652C11.5375 13.4777 9.41254 12.9027 9.41254 12.9027H9.42504C8.75004 12.7152 8.25004 12.0902 8.25004 11.3527C8.25004 10.4152 9.13754 9.70266 9.85004 9.75266C10.335 9.77632 10.7416 10.1469 10.8898 10.282C10.8982 10.2897 10.9058 10.2966 10.9125 10.3027C11.0403 10.4197 11.0955 10.5006 11.2788 10.7689C11.3108 10.8157 11.3467 10.8682 11.3875 10.9277C11.4105 10.9612 11.4349 10.9969 11.4608 11.0348C11.6183 11.2654 11.8299 11.5751 12.0875 11.9402C12.275 12.1027 12.875 12.6152 13.775 12.6402C14.675 12.6152 15.2875 12.1027 15.4625 11.9402C15.7202 11.5751 15.9318 11.2654 16.0893 11.0348C16.1152 10.9969 16.1396 10.9612 16.1625 10.9277C16.4375 10.5277 16.5 10.4402 16.6375 10.3027C16.7625 10.1777 17.1875 9.77766 17.7 9.75266Z" fill="white"/>
<path fill-rule="evenodd" clip-rule="evenodd" d="M9.54424 5.69813C11.4311 2.4307 16.1473 2.4307 18.0342 5.69813L26.669 20.6508C28.5562 23.9187 26.1978 28.0041 22.4241 28.0041H16.1392C16.9786 27.1715 18.0751 26.8778 18.0751 26.8778H18.0626C18.7376 26.6903 19.2251 26.0778 19.2251 25.3528C19.2251 24.4403 18.3501 23.7278 17.6376 23.7653C17.1376 23.7903 16.7126 24.1903 16.6001 24.3028C16.4626 24.4403 16.4001 24.5278 16.1376 24.9153L16.0932 24.9802C15.9331 25.2145 15.7113 25.5389 15.4376 25.9153C15.2626 26.0778 14.6626 26.5778 13.7751 26.6153C12.8876 26.5903 12.2876 26.0778 12.1126 25.9153C11.8126 25.4903 11.5751 25.1528 11.4126 24.9153L11.3477 24.8194C11.1385 24.51 11.0755 24.4168 10.9501 24.3028L10.9277 24.2825C10.7808 24.1487 10.3859 23.789 9.91257 23.7653C9.20007 23.7278 8.32507 24.4403 8.32507 25.3528C8.32507 26.0778 8.81257 26.6903 9.48757 26.8778H9.47507C9.47507 26.8778 10.5715 27.1715 11.411 28.0041H5.1544C1.38065 28.0041 -0.97778 23.9187 0.909407 20.6508L9.54424 5.69813ZM17.6999 19.0026C18.4124 18.9651 19.2999 19.6776 19.2999 20.6026C19.2999 21.3401 18.7999 21.9526 18.0749 22.1526H18.0874C18.0874 22.1526 15.9749 22.7276 15.3499 24.5151C15.3499 24.7526 15.2999 24.9901 15.1999 25.1901C14.9624 25.6901 14.4874 26.0401 13.9124 26.1026H13.8999C13.8499 26.1151 13.7999 26.1151 13.7499 26.1151C13.7249 26.1151 13.6999 26.112 13.6749 26.1088C13.6499 26.1057 13.6249 26.1026 13.5999 26.1026H13.5874C13.0124 26.0526 12.5374 25.6901 12.2999 25.1901C12.1999 24.9901 12.1499 24.7526 12.1499 24.5151C11.5374 22.7276 9.41238 22.1526 9.41238 22.1526H9.42488C8.74988 21.9651 8.24988 21.3401 8.24988 20.6026C8.24988 19.6651 9.13738 18.9526 9.84988 19.0026C10.3348 19.0262 10.7414 19.3968 10.8896 19.5319L10.9124 19.5526C11.0401 19.6697 11.0953 19.7505 11.2786 20.0188L11.2787 20.0188C11.3107 20.0657 11.3465 20.1182 11.3874 20.1776L11.4606 20.2848L11.4607 20.2848L11.4609 20.2852C11.6184 20.5157 11.8299 20.8253 12.0874 21.1901C12.2749 21.3526 12.8749 21.8651 13.7749 21.8901C14.6749 21.8651 15.2874 21.3526 15.4624 21.1901C15.7201 20.825 15.9317 20.5153 16.0892 20.2846L16.1624 20.1776C16.4374 19.7776 16.4999 19.6901 16.6374 19.5526C16.7624 19.4276 17.1874 19.0276 17.6999 19.0026ZM19.2999 15.9778C19.2999 15.0528 18.4124 14.3403 17.6999 14.3778C17.1874 14.4028 16.7624 14.8028 16.6374 14.9278C16.4999 15.0653 16.4374 15.1528 16.1624 15.5528L16.0893 15.6598L16.0892 15.6599C15.9316 15.8905 15.7201 16.2002 15.4624 16.5653C15.2874 16.7278 14.6749 17.2403 13.7749 17.2653C12.8749 17.2403 12.2749 16.7278 12.0874 16.5653C11.8297 16.2002 11.6181 15.8905 11.4606 15.6599L11.4606 15.6599L11.3874 15.5528C11.3465 15.4934 11.3107 15.4409 11.2787 15.3941L11.2786 15.394C11.0953 15.1257 11.0401 15.0449 10.9124 14.9278L10.8896 14.9071C10.7414 14.772 10.3348 14.4014 9.84988 14.3778C9.13738 14.3278 8.24988 15.0403 8.24988 15.9778C8.24988 16.7153 8.74988 17.3403 9.42488 17.5278H9.41238C9.41238 17.5278 11.5374 18.1028 12.1499 19.8903C12.1499 20.1278 12.1999 20.3653 12.2999 20.5653C12.5374 21.0653 13.0124 21.4278 13.5874 21.4778H13.5999C13.6249 21.4778 13.6498 21.4809 13.6748 21.484L13.6749 21.484C13.6999 21.4872 13.7249 21.4903 13.7499 21.4903C13.7999 21.4903 13.8499 21.4903 13.8999 21.4778H13.9124C14.4874 21.4153 14.9624 21.0653 15.1999 20.5653C15.2999 20.3653 15.3499 20.1278 15.3499 19.8903C15.9749 18.1028 18.0874 17.5278 18.0874 17.5278H18.0749C18.7999 17.3278 19.2999 16.7153 19.2999 15.9778ZM17.7 9.75266C18.4125 9.71516 19.3 10.4277 19.3 11.3527C19.3 12.0902 18.8 12.7027 18.075 12.9027H18.0875C18.0875 12.9027 15.975 13.4777 15.35 15.2652C15.35 15.5027 15.3 15.7402 15.2 15.9402C14.9625 16.4402 14.4875 16.7902 13.9125 16.8527H13.9C13.85 16.8652 13.8 16.8652 13.75 16.8652C13.725 16.8652 13.7 16.862 13.675 16.8589C13.65 16.8558 13.625 16.8527 13.6 16.8527H13.5875C13.0125 16.8027 12.5375 16.4402 12.3 15.9402C12.2 15.7402 12.15 15.5027 12.15 15.2652C11.5375 13.4777 9.41254 12.9027 9.41254 12.9027H9.42504C8.75004 12.7152 8.25004 12.0902 8.25004 11.3527C8.25004 10.4152 9.13754 9.70266 9.85004 9.75266C10.335 9.77632 10.7416 10.1469 10.8898 10.282C10.8982 10.2897 10.9058 10.2966 10.9125 10.3027C11.0403 10.4197 11.0955 10.5006 11.2788 10.7689C11.3108 10.8157 11.3467 10.8682 11.3875 10.9277C11.4105 10.9612 11.4349 10.9969 11.4608 11.0348C11.6183 11.2654 11.8299 11.5751 12.0875 11.9402C12.275 12.1027 12.875 12.6152 13.775 12.6402C14.675 12.6152 15.2875 12.1027 15.4625 11.9402C15.7202 11.5751 15.9318 11.2654 16.0893 11.0348C16.1152 10.9969 16.1396 10.9612 16.1625 10.9277C16.4375 10.5277 16.5 10.4402 16.6375 10.3027C16.7625 10.1777 17.1875 9.77766 17.7 9.75266Z" fill="#F59E0B"/>
<path d="M19.7252 25.9781C19.7252 25.0656 18.8502 24.3531 18.1377 24.3906C17.6377 24.4156 17.2127 24.8156 17.1002 24.9281C16.9627 25.0656 16.9002 25.1531 16.6377 25.5406C16.4752 25.7781 16.2377 26.1281 15.9377 26.5406C15.7627 26.7031 15.1627 27.2031 14.2752 27.2406C13.3877 27.2156 12.7877 26.7031 12.6127 26.5406C12.3127 26.1156 12.0752 25.7781 11.9127 25.5406C11.6502 25.1531 11.5877 25.0531 11.4502 24.9281C11.3252 24.8156 10.9127 24.4156 10.4127 24.3906C9.7002 24.3531 8.8252 25.0656 8.8252 25.9781C8.8252 26.7031 9.3127 27.3156 9.9877 27.5031C9.9877 27.5031 9.9877 27.5031 9.9752 27.5031C9.9752 27.5031 12.0752 28.0656 12.6877 29.8406C12.6877 30.0781 12.7377 30.3031 12.8377 30.5031C13.0752 30.9906 13.5502 31.3531 14.1127 31.4031C14.1127 31.4031 14.1127 31.4031 14.1252 31.4031C14.1752 31.4031 14.2252 31.4156 14.2752 31.4156C14.3252 31.4156 14.3752 31.4156 14.4252 31.4031C14.4252 31.4031 14.4252 31.4031 14.4377 31.4031C15.0002 31.3406 15.4752 30.9906 15.7127 30.5031C15.8127 30.3031 15.8627 30.0781 15.8627 29.8406C16.4752 28.0656 18.5752 27.5031 18.5752 27.5031C18.5752 27.5031 18.5752 27.5031 18.5627 27.5031C19.2377 27.3156 19.7252 26.7031 19.7252 25.9781Z" fill="#BC6705"/>
<path d="M19.8 21.228C19.8 20.303 18.9125 19.5905 18.2 19.628C17.6875 19.653 17.2625 20.053 17.1375 20.178C17 20.3155 16.9375 20.403 16.6625 20.803C16.5 21.0405 16.2625 21.3905 15.9625 21.8155C15.7875 21.978 15.175 22.4905 14.275 22.5155C13.375 22.4905 12.775 21.978 12.5875 21.8155C12.2875 21.3905 12.05 21.0405 11.8875 20.803C11.6125 20.403 11.5625 20.3155 11.4125 20.178C11.2875 20.0655 10.8625 19.653 10.35 19.628C9.6375 19.578 8.75 20.2905 8.75 21.228C8.75 21.9655 9.25 22.5905 9.925 22.778C9.925 22.778 9.925 22.778 9.9125 22.778C9.9125 22.778 12.0375 23.353 12.65 25.1405C12.65 25.378 12.7 25.6155 12.8 25.8155C13.0375 26.3155 13.5125 26.678 14.0875 26.728C14.0875 26.728 14.0875 26.728 14.1 26.728C14.15 26.728 14.2 26.7405 14.25 26.7405C14.3 26.7405 14.35 26.7405 14.4 26.728C14.4 26.728 14.4 26.728 14.4125 26.728C14.9875 26.6655 15.4625 26.3155 15.7 25.8155C15.8 25.6155 15.85 25.378 15.85 25.1405C16.475 23.353 18.5875 22.778 18.5875 22.778C18.5875 22.778 18.5875 22.778 18.575 22.778C19.3 22.578 19.8 21.9655 19.8 21.228Z" fill="#BC6705"/>
<path d="M19.8 16.603C19.8 15.678 18.9125 14.9655 18.2 15.003C17.6875 15.028 17.2625 15.428 17.1375 15.553C17 15.6905 16.9375 15.778 16.6625 16.178C16.5 16.4155 16.2625 16.7655 15.9625 17.1905C15.7875 17.353 15.175 17.8655 14.275 17.8905C13.375 17.8655 12.775 17.353 12.5875 17.1905C12.2875 16.7655 12.05 16.4155 11.8875 16.178C11.6125 15.778 11.5625 15.6905 11.4125 15.553C11.2875 15.4405 10.8625 15.028 10.35 15.003C9.6375 14.953 8.75 15.6655 8.75 16.603C8.75 17.3405 9.25 17.9655 9.925 18.153C9.925 18.153 9.925 18.153 9.9125 18.153C9.9125 18.153 12.0375 18.728 12.65 20.5155C12.65 20.753 12.7 20.9905 12.8 21.1905C13.0375 21.6905 13.5125 22.053 14.0875 22.103C14.0875 22.103 14.0875 22.103 14.1 22.103C14.15 22.103 14.2 22.1155 14.25 22.1155C14.3 22.1155 14.35 22.1155 14.4 22.103C14.4 22.103 14.4 22.103 14.4125 22.103C14.9875 22.0405 15.4625 21.6905 15.7 21.1905C15.8 20.9905 15.85 20.753 15.85 20.5155C16.475 18.728 18.5875 18.153 18.5875 18.153C18.5875 18.153 18.5875 18.153 18.575 18.153C19.3 17.953 19.8 17.3405 19.8 16.603Z" fill="#BC6705"/>
<path d="M19.8 11.978C19.8 11.053 18.9125 10.3405 18.2 10.378C17.6875 10.403 17.2625 10.803 17.1375 10.928C17 11.0655 16.9375 11.153 16.6625 11.553C16.5 11.7905 16.2625 12.1405 15.9625 12.5655C15.7875 12.728 15.175 13.2405 14.275 13.2655C13.375 13.2405 12.775 12.728 12.5875 12.5655C12.2875 12.1405 12.05 11.7905 11.8875 11.553C11.6125 11.153 11.5625 11.0655 11.4125 10.928C11.2875 10.8155 10.8625 10.403 10.35 10.378C9.6375 10.328 8.75 11.0405 8.75 11.978C8.75 12.7155 9.25 13.3405 9.925 13.528C9.925 13.528 9.925 13.528 9.9125 13.528C9.9125 13.528 12.0375 14.103 12.65 15.8905C12.65 16.128 12.7 16.3655 12.8 16.5655C13.0375 17.0655 13.5125 17.428 14.0875 17.478C14.0875 17.478 14.0875 17.478 14.1 17.478C14.15 17.478 14.2 17.4905 14.25 17.4905C14.3 17.4905 14.35 17.4905 14.4 17.478C14.4 17.478 14.4 17.478 14.4125 17.478C14.9875 17.4155 15.4625 17.0655 15.7 16.5655C15.8 16.3655 15.85 16.128 15.85 15.8905C16.475 14.103 18.5875 13.528 18.5875 13.528C18.5875 13.528 18.5875 13.528 18.575 13.528C19.3 13.328 19.8 12.7155 19.8 11.978Z" fill="#BC6705"/>
<path d="M19.2252 25.3526C19.2252 24.4401 18.3502 23.7276 17.6377 23.7651C17.1377 23.7901 16.7127 24.1901 16.6002 24.3026C16.4627 24.4401 16.4002 24.5276 16.1377 24.9151C15.9752 25.1526 15.7377 25.5026 15.4377 25.9151C15.2627 26.0776 14.6627 26.5776 13.7752 26.6151C12.8877 26.5901 12.2877 26.0776 12.1127 25.9151C11.8127 25.4901 11.5752 25.1526 11.4127 24.9151C11.1502 24.5276 11.0877 24.4276 10.9502 24.3026C10.8252 24.1901 10.4127 23.7901 9.9127 23.7651C9.2002 23.7276 8.3252 24.4401 8.3252 25.3526C8.3252 26.0776 8.8127 26.6901 9.4877 26.8776C9.4877 26.8776 9.4877 26.8776 9.4752 26.8776C9.4752 26.8776 11.5752 27.4401 12.1877 29.2151C12.1877 29.4526 12.2377 29.6776 12.3377 29.8776C12.5752 30.3651 13.0502 30.7276 13.6127 30.7776C13.6127 30.7776 13.6127 30.7776 13.6252 30.7776C13.6752 30.7776 13.7252 30.7901 13.7752 30.7901C13.8252 30.7901 13.8752 30.7901 13.9252 30.7776C13.9252 30.7776 13.9252 30.7776 13.9377 30.7776C14.5002 30.7151 14.9752 30.3651 15.2127 29.8776C15.3127 29.6776 15.3627 29.4526 15.3627 29.2151C15.9752 27.4401 18.0752 26.8776 18.0752 26.8776C18.0752 26.8776 18.0752 26.8776 18.0627 26.8776C18.7377 26.6901 19.2252 26.0776 19.2252 25.3526Z" fill="white"/>
<path d="M19.3 20.6025C19.3 19.6775 18.4125 18.965 17.7 19.0025C17.1875 19.0275 16.7625 19.4275 16.6375 19.5525C16.5 19.69 16.4375 19.7775 16.1625 20.1775C16 20.415 15.7625 20.765 15.4625 21.19C15.2875 21.3525 14.675 21.865 13.775 21.89C12.875 21.865 12.275 21.3525 12.0875 21.19C11.7875 20.765 11.55 20.415 11.3875 20.1775C11.1125 19.7775 11.0625 19.69 10.9125 19.5525C10.7875 19.44 10.3625 19.0275 9.85 19.0025C9.1375 18.9525 8.25 19.665 8.25 20.6025C8.25 21.34 8.75 21.965 9.425 22.1525C9.425 22.1525 9.425 22.1525 9.4125 22.1525C9.4125 22.1525 11.5375 22.7275 12.15 24.515C12.15 24.7525 12.2 24.99 12.3 25.19C12.5375 25.69 13.0125 26.0525 13.5875 26.1025C13.5875 26.1025 13.5875 26.1025 13.6 26.1025C13.65 26.1025 13.7 26.115 13.75 26.115C13.8 26.115 13.85 26.115 13.9 26.1025C13.9 26.1025 13.9 26.1025 13.9125 26.1025C14.4875 26.04 14.9625 25.69 15.2 25.19C15.3 24.99 15.35 24.7525 15.35 24.515C15.975 22.7275 18.0875 22.1525 18.0875 22.1525C18.0875 22.1525 18.0875 22.1525 18.075 22.1525C18.8 21.9525 19.3 21.34 19.3 20.6025Z" fill="white"/>
<path d="M19.3 15.9775C19.3 15.0525 18.4125 14.34 17.7 14.3775C17.1875 14.4025 16.7625 14.8025 16.6375 14.9275C16.5 15.065 16.4375 15.1525 16.1625 15.5525C16 15.79 15.7625 16.14 15.4625 16.565C15.2875 16.7275 14.675 17.24 13.775 17.265C12.875 17.24 12.275 16.7275 12.0875 16.565C11.7875 16.14 11.55 15.79 11.3875 15.5525C11.1125 15.1525 11.0625 15.065 10.9125 14.9275C10.7875 14.815 10.3625 14.4025 9.85 14.3775C9.1375 14.3275 8.25 15.04 8.25 15.9775C8.25 16.715 8.75 17.34 9.425 17.5275C9.425 17.5275 9.425 17.5275 9.4125 17.5275C9.4125 17.5275 11.5375 18.1025 12.15 19.89C12.15 20.1275 12.2 20.365 12.3 20.565C12.5375 21.065 13.0125 21.4275 13.5875 21.4775C13.5875 21.4775 13.5875 21.4775 13.6 21.4775C13.65 21.4775 13.7 21.49 13.75 21.49C13.8 21.49 13.85 21.49 13.9 21.4775C13.9 21.4775 13.9 21.4775 13.9125 21.4775C14.4875 21.415 14.9625 21.065 15.2 20.565C15.3 20.365 15.35 20.1275 15.35 19.89C15.975 18.1025 18.0875 17.5275 18.0875 17.5275C18.0875 17.5275 18.0875 17.5275 18.075 17.5275C18.8 17.3275 19.3 16.715 19.3 15.9775Z" fill="white"/>
<path d="M19.3 11.3525C19.3 10.4275 18.4125 9.71498 17.7 9.75248C17.1875 9.77748 16.7625 10.1775 16.6375 10.3025C16.5 10.44 16.4375 10.5275 16.1625 10.9275C16 11.165 15.7625 11.515 15.4625 11.94C15.2875 12.1025 14.675 12.615 13.775 12.64C12.875 12.615 12.275 12.1025 12.0875 11.94C11.7875 11.515 11.55 11.165 11.3875 10.9275C11.1125 10.5275 11.0625 10.44 10.9125 10.3025C10.7875 10.19 10.3625 9.77748 9.85 9.75248C9.1375 9.70248 8.25 10.415 8.25 11.3525C8.25 12.09 8.75 12.715 9.425 12.9025C9.425 12.9025 9.425 12.9025 9.4125 12.9025C9.4125 12.9025 11.5375 13.4775 12.15 15.265C12.15 15.5025 12.2 15.74 12.3 15.94C12.5375 16.44 13.0125 16.8025 13.5875 16.8525C13.5875 16.8525 13.5875 16.8525 13.6 16.8525C13.65 16.8525 13.7 16.865 13.75 16.865C13.8 16.865 13.85 16.865 13.9 16.8525C13.9 16.8525 13.9 16.8525 13.9125 16.8525C14.4875 16.79 14.9625 16.44 15.2 15.94C15.3 15.74 15.35 15.5025 15.35 15.265C15.975 13.4775 18.0875 12.9025 18.0875 12.9025C18.0875 12.9025 18.0875 12.9025 18.075 12.9025C18.8 12.7025 19.3 12.09 19.3 11.3525Z" fill="white"/>
</g>
<defs>
<clipPath id="clip0_626_2207">
<rect width="31.25" height="28" fill="white"/>
</clipPath>
</defs>
</svg>
